<svg transform="scale(1)" version="1.1" id="_0644_x5F_Balloon" xmlns="http://www.w3.org/2000/svg" xmlns:xlink="http://www.w3.org/1999/xlink" x="0px" y="0px" viewBox="0 0 500 500" xml:space="preserve" class="show_show__wrapper__graphic__5Waiy "><title>React</title><style type="text/css">
	.st0{fill:#FFFFFF;}
	.st1{fill:#3C3D37;}
	.st2{fill:#55679C;}

	<!-- .st0{fill:#FFFFFF;}
	.st1{fill:#732A09;}
	.st2{fill:#F75454;} -->
</style><g id="balloon"><path class="st0" d="M341.4,145.5c-7.7,18-24.8,28.4-40.1,25.5c-2.5,0.8-0.6,1.6-1.2,2.9c-0.6,1.3-3.9,0.4-3.9-1.7
		c0,0-0.2,0.9-1.8,0.6c-0.9-0.2-1.5-1-1.4-1.9c-1,0.4-2.1,0.4-3.1,0c-1.4-0.6-0.8-1.6,0.6-2.2c0.7-0.3,1.2-0.7,1.7-1.2
		c-14.1-8.6-19.1-29.2-10.9-48.1c8.7-20.3,29.3-31,45.9-23.8C343.7,102.9,350.1,125.2,341.4,145.5z"></path><path class="st1" d="M298.8,175c-0.2,0-0.5,0-0.7-0.1c-1-0.2-1.8-0.8-2.3-1.7c-0.5,0.2-1,0.2-1.6,0.1c-0.9-0.1-1.6-0.8-1.8-1.7
		c-0.9,0.3-1.9,0.2-2.8-0.2c-0.9-0.4-1.1-1-1-1.4c0-0.7,0.6-1.3,1.7-1.7c0.4-0.2,0.8-0.4,1.1-0.6c-14.1-9-18.6-29.7-10.6-48.4
		c4.8-11.2,13.4-19.9,23.6-24c7.4-3.1,15.6-3.1,23-0.1c16.9,7.3,23.4,30,14.6,50.5c-7.7,17.9-24.7,28.8-40.5,25.8
		c-1,0.3-0.9,0.5-0.8,0.9c0.2,0.5,0.2,1.1,0,1.6C300.2,174.7,299.5,175.1,298.8,175z M296.1,171.7L296.1,171.7
		c0.3,0,0.5,0.2,0.5,0.5c0.1,0.9,0.8,1.6,1.7,1.7c0.6,0.1,1.1,0,1.2-0.2s0.1-0.5,0-0.8c-0.3-1-0.2-1.7,1.6-2.3c0.1,0,0.2,0,0.3,0
		c15.4,2.9,32-7.7,39.5-25.2l0,0c8.6-20,2.3-42.1-14-49.1c-7.1-2.9-15.1-2.9-22.2,0.1c-9.9,3.9-18.3,12.5-23,23.4
		c-7.9,18.5-3.3,38.9,10.7,47.4c0.1,0.1,0.2,0.2,0.2,0.4c0,0.1,0,0.3-0.1,0.4c-0.5,0.6-1.2,1.1-1.9,1.4c-0.7,0.3-1,0.6-1,0.8
		s0.2,0.3,0.5,0.4c0.9,0.3,1.8,0.3,2.7,0c0.2-0.1,0.3,0,0.5,0.1c0.1,0.1,0.2,0.3,0.2,0.5c-0.1,0.7,0.4,1.2,1,1.4
		c0.8,0.2,1.1-0.1,1.2-0.2C295.8,171.9,295.9,171.7,296.1,171.7L296.1,171.7z"></path><path class="st1" d="M301.3,171.5L301.3,171.5c-2.6-0.5-5.1-1.3-7.5-2.4c-0.3-0.1-0.4-0.4-0.3-0.7s0.4-0.4,0.7-0.3
		c2.3,1,4.7,1.8,7.1,2.3c0.3,0,0.5,0.3,0.4,0.6C301.7,171.4,301.5,171.6,301.3,171.5z"></path><path class="st0" d="M329.8,101c3.5,3.1,10.7,11.3,11.9,26.5c0.1,0.9-0.5,1.6-1.4,1.8l0,0c-0.9,0.2-1.8-0.4-2-1.4
		c0-0.1,0-0.2,0-0.2c-0.3-4.8-1.8-17.1-10.8-23.8c-0.7-0.5-0.9-1.4-0.6-2.2l0,0c0.4-0.9,1.5-1.4,2.4-1
		C329.5,100.8,329.7,100.9,329.8,101z"></path><path class="st1" d="M340,129.8c-1.2,0-2.1-0.9-2.2-2.1c-0.3-4.9-1.8-16.9-10.6-23.5c-1-0.8-1.2-2.3-0.5-3.3
		c0.3-0.4,0.8-0.8,1.4-0.9c0.7-0.2,1.5,0,2.1,0.5l0,0c4,3.6,10.9,11.8,12,26.9c0.1,1.1-0.7,2.1-1.8,2.3
		C340.3,129.9,340.1,129.9,340,129.8z M328.6,101c-0.1,0-0.2,0-0.3,0c-0.7,0.2-1.2,0.9-1,1.6c0.1,0.3,0.2,0.6,0.5,0.8
		c9.1,6.9,10.8,19.2,11,24.2c0,0.3,0.2,0.7,0.5,0.9c0.5,0.4,1.3,0.3,1.7-0.2c0.2-0.2,0.3-0.5,0.2-0.8c-1.2-15.2-8.6-23.4-11.7-26.2
		l0,0C329.2,101.1,328.9,101,328.6,101L328.6,101z"></path><path class="st1" d="M254.4,282.5c-0.3,0-0.5-0.2-0.5-0.5c0-0.1,0-0.1,0-0.2l39.3-109.5c0.1-0.3,0.4-0.4,0.7-0.3
		c0.3,0.1,0.4,0.4,0.3,0.6l-39.3,109.5C254.8,282.4,254.6,282.5,254.4,282.5z"></path><path class="st0" d="M313.2,108.9c-3.8,19.2-18.3,33-33.9,33.4c-2.3,1.4-0.3,1.7-0.6,3c-0.3,1.3-3.7,1.2-4.1-0.8c0,0,0,0.9-1.6,1
		c-0.9,0-1.7-0.7-1.8-1.6c-0.9,0.6-2,0.8-3,0.7c-1.5-0.4-1.1-1.4,0.1-2.2c0.6-0.4,1.1-0.9,1.4-1.6c-15.6-5.4-24.7-24.5-20.7-44.7
		c4.3-21.7,22.1-36.4,39.9-32.9C306.6,66.7,317.5,87.2,313.2,108.9z"></path><path class="st1" d="M277.1,146.8L277.1,146.8c-1,0-2-0.4-2.6-1.2c-0.4,0.3-1,0.5-1.5,0.4c-0.9,0-1.7-0.5-2.1-1.3
		c-0.9,0.4-1.9,0.6-2.8,0.4c-1-0.2-1.3-0.7-1.3-1.1c-0.1-0.7,0.3-1.4,1.3-2.1c0.3-0.2,0.7-0.5,0.9-0.8
		c-15.6-5.8-24.4-25.1-20.5-45.1c2.4-12,8.9-22.3,18-28.4c6.5-4.6,14.6-6.3,22.5-4.9c18,3.6,29.1,24.4,24.8,46.3l-0.5-0.1l0.5,0.1
		c-3.8,19.1-18.2,33.3-34.2,33.8c-0.9,0.5-0.8,0.7-0.6,1c0.6,0.8,0.5,1.9-0.3,2.5C278.3,146.7,277.7,146.8,277.1,146.8L277.1,146.8z
		 M274.5,144c0.2,0,0.4,0.2,0.5,0.4c0.3,0.9,1.2,1.4,2.1,1.3c0.6,0,1-0.2,1.1-0.5c0-0.3,0-0.6-0.2-0.8c-0.5-0.9-0.5-1.6,1-2.6
		c0.1,0,0.2-0.1,0.2-0.1c15.7-0.4,29.7-14.3,33.4-33l0,0c4.2-21.4-6.5-41.6-24-45.1c-7.6-1.4-15.4,0.3-21.7,4.7
		c-8.9,5.9-15.3,16.1-17.6,27.8c-3.9,19.8,4.9,38.7,20.4,44.1c0.3,0.1,0.4,0.4,0.3,0.7c0,0,0,0,0,0c-0.4,0.7-0.9,1.3-1.6,1.7
		c-0.7,0.4-0.9,0.8-0.8,1s0.2,0.2,0.6,0.3c0.9,0.1,1.8-0.1,2.6-0.6c0.2-0.1,0.3-0.1,0.5,0c0.2,0.1,0.3,0.2,0.3,0.4
		c0.1,0.6,0.6,1.1,1.3,1.1c0.8,0,1-0.3,1.1-0.5C274.1,144.3,274.3,144.1,274.5,144L274.5,144z"></path><path class="st1" d="M278.4,142.9c-2.3-0.1-4.6-0.3-6.8-0.8c-0.3-0.1-0.5-0.3-0.4-0.6s0.3-0.5,0.6-0.4c2.5,0.5,4.9,0.8,7.5,0.8
		c0.3,0,0.5,0.2,0.6,0.5c0,0.3-0.2,0.5-0.5,0.6c0,0,0,0,0,0C279.1,142.8,278.8,142.9,278.4,142.9z"></path><path class="st0" d="M292.6,67.8c4.1,2.3,12.8,8.8,17.2,23.4c0.2,0.9-0.2,1.8-1,2.1l0,0c-0.9,0.4-1.9-0.1-2.2-0.9
		c0-0.1-0.1-0.1-0.1-0.2c-1.2-4.6-5.3-16.3-15.5-21c-0.8-0.4-1.2-1.2-1-2.1l0,0c0.2-1,1.2-1.6,2.2-1.4
		C292.2,67.7,292.4,67.7,292.6,67.8z"></path><path class="st1" d="M308.1,93.9c-0.3,0-0.7-0.1-1-0.2c-0.6-0.3-1-0.8-1.2-1.4c-1.3-4.7-5.3-16.1-15.3-20.7c-1-0.5-1.5-1.5-1.3-2.6
		c0.2-0.7,0.6-1.4,1.3-1.7c0.7-0.3,1.5-0.3,2.1,0.1l0,0c4.7,2.6,13.1,9.2,17.4,23.7c0.3,1.1-0.2,2.2-1.3,2.7
		C308.7,93.9,308.4,93.9,308.1,93.9z M291.7,68.1c-0.2,0-0.4,0-0.5,0.1c-0.7,0.3-1,1.1-0.6,1.8c0.1,0.3,0.4,0.5,0.6,0.6
		c10.3,4.8,14.5,16.5,15.8,21.4c0.1,0.3,0.3,0.6,0.6,0.8c0.3,0.1,0.7,0.1,1,0c0.6-0.2,0.9-0.8,0.7-1.4c-4.4-14.6-13.3-21-16.9-23.1
		C292.2,68.1,291.9,68.1,291.7,68.1L291.7,68.1z"></path><path class="st1" d="M253.8,273.2L253.8,273.2c-0.4,0-0.6-0.3-0.5-0.6c0,0,0,0,0,0l19.1-127.2c0-0.3,0.3-0.5,0.6-0.4c0,0,0,0,0,0
		c0.3,0,0.5,0.3,0.4,0.6c0,0,0,0,0,0l-19.1,127.2C254.3,273,254.1,273.2,253.8,273.2z"></path><path class="st0" d="M162.7,145.5c7.7,18,24.7,28.4,40.1,25.5c2.5,0.8,0.6,1.6,1.2,2.9s3.9,0.4,3.9-1.7c0,0,0.2,0.9,1.8,0.6
		c0.9-0.2,1.5-1,1.4-1.9c1,0.4,2.1,0.4,3.1,0c1.4-0.6,0.8-1.6-0.6-2.2c-0.7-0.3-1.2-0.7-1.7-1.2c14.1-8.6,19.1-29.2,10.9-48.1
		c-8.7-20.3-29.3-31-45.9-23.8C160.4,102.9,153.9,125.2,162.7,145.5z"></path><path class="st1" d="M205.2,175c-0.7,0.1-1.3-0.3-1.7-0.9c-0.2-0.5-0.2-1.1,0-1.6c0.1-0.4,0.2-0.6-0.8-0.9
		c-15.8,2.9-32.9-8-40.5-25.8c-8.8-20.6-2.3-43.2,14.6-50.5c7.4-3.1,15.7-3,23,0.1c10.2,4,18.8,12.8,23.6,24
		c8,18.7,3.5,39.4-10.6,48.4c0.3,0.3,0.7,0.5,1,0.6c1,0.4,1.6,1,1.7,1.7c0,0.4-0.2,1-1.1,1.4c-0.9,0.4-1.9,0.4-2.8,0.2
		c-0.2,0.9-0.9,1.6-1.8,1.7c-0.5,0.1-1.1,0.1-1.6-0.1c-0.5,0.9-1.3,1.5-2.3,1.7C205.6,175,205.4,175,205.2,175z M202.8,170.5
		c0.1,0,0.1,0,0.2,0c1.7,0.6,1.9,1.3,1.6,2.3c-0.1,0.3-0.1,0.6,0,0.8c0.1,0.3,0.6,0.4,1.2,0.2c0.9-0.1,1.6-0.8,1.7-1.7
		c0-0.3,0.2-0.5,0.5-0.5c0.3,0,0.5,0.1,0.6,0.4c0.1,0.1,0.4,0.4,1.2,0.2c0.6-0.1,1.1-0.7,1-1.4c0-0.2,0.1-0.3,0.2-0.5
		c0.1-0.1,0.3-0.1,0.5-0.1c0.9,0.3,1.8,0.3,2.7,0c0.4-0.2,0.5-0.3,0.5-0.4c0-0.1-0.3-0.5-1-0.8c-0.7-0.3-1.4-0.8-1.9-1.4
		c-0.1-0.1-0.1-0.3-0.1-0.4c0-0.1,0.1-0.3,0.2-0.4c14.1-8.5,18.7-28.9,10.7-47.4c-4.7-11-13.1-19.5-23-23.4c-7.1-3-15.1-3-22.2-0.1
		c-16.3,7.1-22.6,29.1-14,49.1C170.7,162.7,187.3,173.4,202.8,170.5L202.8,170.5z"></path><path class="st1" d="M202.8,171.5c-0.3,0-0.5-0.2-0.5-0.4c0-0.3,0.2-0.5,0.4-0.6c2.5-0.5,4.8-1.3,7.1-2.3c0.3-0.1,0.6,0,0.7,0.3
		c0.1,0.3,0,0.6-0.3,0.7C207.9,170.2,205.4,171,202.8,171.5L202.8,171.5z"></path><path class="st0" d="M174.2,101c-3.5,3.1-10.7,11.3-11.9,26.5c-0.1,0.9,0.5,1.6,1.4,1.8l0,0c0.9,0.2,1.8-0.4,2-1.4
		c0-0.1,0-0.2,0-0.2c0.3-4.8,1.8-17.1,10.8-23.8c0.7-0.5,0.9-1.4,0.6-2.2l0,0c-0.4-0.9-1.5-1.4-2.4-1
		C174.5,100.8,174.4,100.9,174.2,101z"></path><path class="st1" d="M164,129.8c-0.1,0-0.3,0-0.4,0c-1.1-0.2-1.9-1.2-1.8-2.3c1.2-15.1,8.1-23.3,12.1-26.9c0.6-0.5,1.3-0.7,2.1-0.5
		c1.3,0.3,2.1,1.5,1.8,2.8c-0.1,0.5-0.4,1-0.9,1.4c-8.8,6.6-10.3,18.6-10.6,23.5C166.2,128.9,165.2,129.8,164,129.8L164,129.8z
		 M175.4,101.1c-0.3,0-0.6,0.1-0.9,0.3l0,0c-3.1,2.8-10.5,10.9-11.7,26.2c0,0.6,0.4,1.1,1,1.2c0.6,0.1,1.2-0.3,1.4-0.9
		c0-0.1,0-0.1,0-0.2c0.3-5,1.9-17.4,11-24.2c0.5-0.4,0.7-1,0.4-1.6c-0.2-0.4-0.5-0.7-0.9-0.8C175.6,101.1,175.5,101.1,175.4,101.1z
		 M174.2,101.1L174.2,101.1z"></path><path class="st1" d="M249.6,282.5c-0.2,0-0.4-0.1-0.5-0.3l-39.3-109.5c-0.1-0.3,0-0.6,0.3-0.7c0.3-0.1,0.6,0,0.7,0.3l39.3,109.5
		c0.1,0.3,0,0.6-0.3,0.7C249.8,282.5,249.7,282.5,249.6,282.5z"></path><path class="st0" d="M190.8,108.9c3.8,19.2,18.3,33,33.9,33.4c2.3,1.4,0.3,1.7,0.6,3c0.3,1.3,3.7,1.2,4.1-0.8c0,0,0,0.9,1.6,1
		c0.9,0,1.7-0.7,1.8-1.6c0.9,0.6,2,0.8,3,0.7c1.5-0.4,1.1-1.4-0.1-2.2c-0.6-0.4-1.1-0.9-1.4-1.6c15.6-5.4,24.7-24.5,20.7-44.7
		c-4.2-21.7-22.1-36.4-39.9-32.9C197.5,66.6,186.6,87.2,190.8,108.9z"></path><path class="st1" d="M227,146.8c-0.9,0.1-1.8-0.4-2.1-1.3c-0.1-0.5,0-1.1,0.3-1.6c0.2-0.4,0.3-0.5-0.6-1
		c-16.1-0.5-30.5-14.7-34.2-33.8l0,0c-4.3-21.9,6.8-42.7,24.8-46.3c7.8-1.4,15.9,0.3,22.5,4.9c9.1,6.1,15.7,16.4,18,28.4
		c3.9,20-4.8,39.3-20.5,45.1c0.3,0.3,0.6,0.6,0.9,0.8c0.9,0.6,1.4,1.4,1.3,2.1c-0.1,0.4-0.4,0.9-1.3,1.1c-1,0.2-2,0-2.8-0.4
		c-0.4,0.8-1.2,1.3-2.1,1.3c-0.5,0-1.1-0.1-1.5-0.4C229,146.4,228,146.9,227,146.8L227,146.8z M191.3,108.8
		c3.7,18.7,17.7,32.6,33.4,33c0.1,0,0.2,0,0.2,0.1c1.6,0.9,1.6,1.6,1,2.6c-0.2,0.2-0.3,0.5-0.2,0.8c0.1,0.3,0.5,0.5,1.1,0.5
		c0.9,0.1,1.8-0.5,2.1-1.3c0-0.3,0.3-0.5,0.6-0.5c0.3,0,0.5,0.3,0.5,0.6c0,0.1,0.3,0.4,1.1,0.5c0.6,0,1.2-0.5,1.3-1.1
		c0-0.2,0.1-0.3,0.3-0.4c0.2-0.1,0.3-0.1,0.5,0c0.8,0.5,1.7,0.7,2.6,0.6c0.4-0.1,0.5-0.2,0.6-0.3c0-0.1-0.2-0.5-0.8-1
		c-0.7-0.4-1.2-1-1.6-1.7c-0.1-0.1-0.1-0.3,0-0.4c0.1-0.1,0.2-0.3,0.3-0.3c15.5-5.4,24.3-24.4,20.4-44.1
		c-2.3-11.7-8.7-21.8-17.6-27.8c-6.3-4.4-14.1-6.1-21.7-4.7C197.9,67.2,187.1,87.4,191.3,108.8L191.3,108.8z"></path><path class="st1" d="M225.6,142.9c-0.3,0-0.6,0-0.9,0c-0.3,0-0.5-0.3-0.5-0.6c0-0.3,0.3-0.5,0.6-0.5c2.5,0,5-0.2,7.5-0.8
		c0.3-0.1,0.5,0.1,0.6,0.4c0.1,0.3-0.1,0.6-0.4,0.6c0,0,0,0,0,0C230.2,142.5,227.9,142.8,225.6,142.9z"></path><path class="st0" d="M211.4,67.8c-4.1,2.3-12.8,8.8-17.2,23.4c-0.3,0.8,0.2,1.7,1,2.1l0,0c0.9,0.4,1.9-0.1,2.2-0.9
		c0-0.1,0.1-0.1,0.1-0.2c1.3-4.6,5.3-16.3,15.5-21c0.8-0.4,1.2-1.2,1-2.1l0,0c-0.2-1-1.2-1.6-2.2-1.4
		C211.8,67.7,211.6,67.7,211.4,67.8z"></path><path class="st1" d="M195.9,93.9c-1.2,0-2.2-1-2.2-2.3c0-0.2,0-0.4,0.1-0.6c4.3-14.5,12.7-21.1,17.4-23.7l0,0
		c1.1-0.7,2.6-0.3,3.2,0.8c0.7,1.1,0.3,2.6-0.8,3.2c-0.1,0.1-0.2,0.1-0.3,0.1c-10,4.6-14,16-15.3,20.7c-0.2,0.6-0.6,1.1-1.2,1.4
		C196.6,93.8,196.3,93.9,195.9,93.9z M211.7,68.3c-3.6,2.1-12.6,8.5-16.9,23.1c-0.2,0.6,0.1,1.2,0.7,1.4c0.3,0.1,0.7,0.1,1,0
		c0.3-0.2,0.5-0.4,0.6-0.8c1.3-4.8,5.5-16.5,15.8-21.4c0.6-0.3,0.9-0.9,0.7-1.5c-0.1-0.4-0.4-0.8-0.8-1
		C212.5,68.1,212.1,68.1,211.7,68.3L211.7,68.3z"></path><path class="st1" d="M250.2,273.2c-0.3,0-0.5-0.2-0.5-0.4l-19.1-127.2c0-0.3,0.2-0.5,0.4-0.6c0.3,0,0.5,0.2,0.6,0.4l19.1,127.2
		C250.8,272.9,250.6,273.1,250.2,273.2C250.3,273.2,250.3,273.2,250.2,273.2L250.2,273.2z"></path><path class="st2" d="M289.3,82.1c-0.5,23.4-14.7,42.5-32.9,46.2c-2.4,2.1,0,2.1-0.1,3.7s-4.1,2.2-5.1-0.1c0,0,0.1,1.1-1.7,1.4
		c-1.1,0.2-2.1-0.4-2.4-1.5c-0.9,0.9-2.1,1.3-3.4,1.4c-1.8-0.1-1.6-1.4-0.3-2.6c0.6-0.6,1.1-1.3,1.3-2.1
		c-19.4-3.1-34.1-23.7-33.5-48.2c0.6-26.4,18.5-47.4,40.1-46.9S289.9,55.7,289.3,82.1z"></path><path class="st1" d="M254,133.9c-0.9,0-1.9-0.3-2.5-1c-0.5,0.5-1,0.8-1.7,0.9c-1.1,0.2-2.1-0.2-2.7-1.2c-0.9,0.7-2.1,1.1-3.3,1.1
		c-1.1-0.1-1.6-0.6-1.7-1c-0.3-0.7,0.1-1.6,1-2.5c0.4-0.4,0.8-0.8,1-1.3c-19.6-3.6-33.9-24.3-33.3-48.6c0.3-12.9,4.7-24.9,12.3-33.8
		c7.7-9,17.7-13.8,28.3-13.6c21.8,0.5,39.1,22.5,38.5,49.2c-0.5,23.2-14.5,42.8-33.2,46.7c-1,0.9-0.9,1-0.5,1.5
		c0.5,0.5,0.7,1.1,0.7,1.7c-0.1,0.9-0.9,1.6-2.2,1.9C254.5,133.9,254.2,133.9,254,133.9z M251.3,131.4c0.2,0,0.4,0.1,0.5,0.3
		c0.5,1,1.7,1.5,2.7,1.2c0.8-0.1,1.3-0.5,1.3-0.9c0-0.4-0.2-0.7-0.4-1c-0.8-0.9-0.9-1.7,0.7-3.1c0.1-0.1,0.2-0.1,0.2-0.1
		c18.3-3.7,32-23,32.5-45.7l0,0c0.6-26.1-16.2-47.6-37.5-48.1c-10.3-0.2-20,4.5-27.5,13.2s-11.8,20.6-12.1,33.2
		c-0.5,24,13.7,44.5,33.1,47.7c0.1,0,0.3,0.1,0.4,0.2c0.1,0.1,0.1,0.3,0.1,0.4c-0.3,0.9-0.8,1.7-1.5,2.3c-0.6,0.6-0.9,1.2-0.8,1.4
		c0.1,0.2,0.4,0.3,0.8,0.3c1.1,0,2.2-0.5,3-1.3c0.2-0.2,0.5-0.2,0.7,0c0.1,0.1,0.1,0.1,0.1,0.2c0.2,0.8,1,1.3,1.8,1.1
		c1-0.2,1.3-0.7,1.3-0.9c0-0.3,0.2-0.5,0.4-0.5L251.3,131.4z"></path><path class="st1" d="M248.5,129.5h-1.2c-0.3,0-0.5-0.2-0.5-0.5c0,0,0,0,0,0c0-0.3,0.2-0.5,0.5-0.5c3,0.1,6-0.1,8.9-0.7
		c0.3-0.1,0.6,0.1,0.6,0.4c0.1,0.3-0.1,0.6-0.4,0.6C253.9,129.3,251.2,129.6,248.5,129.5z"></path><path class="st0" d="M256.7,38.1c5.3,1.9,16.8,7.7,24.9,23.9c0.4,0.9,0.1,2-0.7,2.6l0,0c-1,0.6-2.2,0.3-2.8-0.7
		c0-0.1-0.1-0.1-0.1-0.2c-2.4-5.2-9.6-18.1-22.6-21.5c-1-0.3-1.6-1.2-1.6-2.2l0,0c0-1.2,1-2.2,2.2-2.1C256.3,38,256.5,38,256.7,38.1
		z"></path><path class="st1" d="M279.8,65.5c-0.2,0-0.5,0-0.7-0.1c-0.7-0.2-1.3-0.7-1.6-1.4c-2.5-5.3-9.6-17.9-22.2-21.2
		c-1.5-0.4-2.3-1.9-1.9-3.4c0.2-0.6,0.6-1.2,1.1-1.5c0.7-0.5,1.6-0.6,2.4-0.3l0,0c6,2.1,17.2,8.1,25.2,24.2c0.6,1.2,0.2,2.6-0.9,3.3
		C280.8,65.3,280.3,65.5,279.8,65.5z M256,38.5c-0.3,0-0.7,0.1-0.9,0.3c-0.8,0.5-1,1.6-0.4,2.3c0.2,0.3,0.6,0.6,0.9,0.7
		c13.1,3.4,20.3,16.4,22.9,21.8c0.2,0.4,0.5,0.7,1,0.8c0.8,0.2,1.6-0.3,1.9-1.1c0.1-0.3,0.1-0.7-0.1-1c-8.1-16.3-19.9-22-24.6-23.7
		C256.4,38.5,256.2,38.5,256,38.5z"></path><path class="st1" d="M253.8,273.2c-0.3,0-0.5-0.2-0.5-0.5l-4.2-139.4c0-0.3,0.2-0.5,0.5-0.5c0.3,0,0.5,0.2,0.5,0.5l4.2,139.4
		C254.3,272.9,254.1,273.2,253.8,273.2C253.8,273.2,253.8,273.2,253.8,273.2L253.8,273.2z"></path></g><g id="character"><path class="st0" d="M292.4,315c0,0,4.4,40.8,11.8,53.9c6,10.6,29.8,39.1,38.8,49.9c2.2,2.6,5.8,3.4,8.9,2.1
		c7-3,18.9-9.4,23.5-19.8c1.2-2.6,0.8-5.7-0.9-7.9c-8.1-10.4-33.4-43.5-34.9-47.7c-1.8-5,0.7-22,0.7-22s53.8,16.2,70.9,17.2
		c2.3,0.1,4.5-1.1,5.6-3.1c3-5.5,8.7-17.7,7.6-28.7c-0.3-2.6-2.3-4.8-4.9-5.3c-12.4-2.2-49.4-9.1-59.1-13.8
		c-11.7-5.7-27.9-38.4-54.1-43.4s-39.4,2.5-39.4,2.5L292.4,315z"></path><path class="st1" d="M348.9,422c-2.4,0-4.7-1.1-6.2-2.9c-9.7-11.5-32.9-39.4-38.9-49.9c-7.3-12.9-11.6-51.6-11.9-54.1l-25.4-66
		c-0.1-0.2,0-0.5,0.2-0.6c3.2-1.5,6.6-2.6,10-3.1c6-1.1,16.1-1.9,29.7,0.6c17,3.2,29.7,17.9,39.9,29.6c5.5,6.3,10.2,11.8,14.3,13.8
		c9.7,4.8,47.6,11.7,58.9,13.8c2.9,0.5,5,2.8,5.3,5.7c1,10.9-4.4,22.9-7.7,28.9c-1.2,2.2-3.6,3.5-6.1,3.4c-16-1-64.6-15.3-70.4-17.1
		c-0.4,3.1-2.2,16.9-0.7,21.2c1.5,4.1,27,37.4,34.8,47.6c1.9,2.4,2.3,5.7,1,8.4c-4.7,10.6-16.9,17.1-23.8,20.1
		C351.2,421.8,350,422,348.9,422z M267.6,249.1l25.3,65.7v0.1c0,0.4,4.5,40.8,11.8,53.8c5.9,10.5,29.1,38.3,38.7,49.8
		c2,2.4,5.4,3.2,8.3,2c6.7-2.9,18.7-9.3,23.3-19.5c1.1-2.4,0.8-5.3-0.9-7.4c-10-13-33.5-43.7-35-47.8c-1.8-5,0.6-21.6,0.7-22.3
		c0-0.2,0.1-0.3,0.2-0.4c0.1-0.1,0.3-0.1,0.4,0c0.5,0.2,53.9,16.2,70.8,17.2c2.1,0.1,4.1-1,5.2-2.9c2.6-4.9,8.6-17.3,7.6-28.4
		c-0.2-2.4-2.1-4.4-4.5-4.8c-11.4-2.1-49.4-9-59.2-13.9c-4.2-2.1-9.1-7.6-14.6-14c-10.1-11.6-22.7-26.1-39.4-29.3
		C283.1,242.5,270,248,267.6,249.1z"></path><path class="st0" d="M235.7,381.8c0,0,1.2,13.8,2.2,17.7c0.9,3.9,5,0.7,5.5-6.1c0,0,7.2,21.5,10.7,21.9c3.5,0.4,1.3-4.7,0-8.6
		c-1.3-3.9-4.1-10.9-4.1-10.9s9.9,15.8,12.2,14.5c2.2-1.3-5.2-14.2-5.2-14.2s7.7,10.1,9.9,8.5c2.2-1.6-5.5-12.2-5.5-12.2
		s5.9,4.3,7.2,2.1s-4.7-8.3-7.5-11s-5-7.9-7.1-9.6C251.9,372.2,235.7,381.8,235.7,381.8z"></path><path class="st1" d="M254.5,415.9c-0.2,0-0.3,0-0.5,0c-3.1-0.4-8.3-14.3-10.4-20.3c-0.8,3.7-2.6,6-4.1,6.1c-0.5,0-1.6-0.1-2.1-2.1
		c-0.9-3.9-2.2-17.2-2.2-17.8c0-0.2,0.1-0.4,0.3-0.5c3.9-2.3,16.7-9.7,19-7.9c1.4,1.3,2.5,2.9,3.5,4.5c1,1.8,2.3,3.5,3.7,5.1
		c8.3,8,8.3,10.5,7.6,11.6c-0.3,0.4-0.7,0.8-1.2,0.9c-1.3,0.3-3.2-0.5-4.6-1.4c1.9,2.8,4.9,7.7,4.5,9.9c0,0.4-0.3,0.8-0.6,1
		c-1.6,1.1-4.7-1.8-7.3-4.6c2.2,4.3,4.1,9.3,2.5,10.3c-0.7,0.4-3.1,0.1-10.1-10.3c0.8,2.1,1.7,4.4,2.3,6.1l0.4,1
		c1,3.1,2.2,6.3,1,7.7C255.6,415.7,255,415.9,254.5,415.9z M243.4,392.9c0.2,0,0.4,0.1,0.5,0.4c2.8,8.2,8,21.3,10.3,21.6
		c0.8,0.1,1-0.2,1-0.2c0.8-0.9-0.4-4.2-1.3-6.7l-0.4-1c-1.3-3.9-4.1-10.8-4.1-10.9c-0.1-0.2,0-0.5,0.2-0.7c0.2-0.1,0.5,0,0.7,0.2
		c6.8,10.7,10.9,14.7,11.5,14.3c1-0.6-1.5-6.9-5.3-13.5c-0.1-0.2-0.1-0.5,0.2-0.7c0.2-0.2,0.5-0.1,0.7,0.1c3.6,4.7,8.1,9.2,9.2,8.4
		c0.1-0.1,0.2-0.2,0.2-0.3c0.4-2.1-4-8.8-5.8-11.2c-0.2-0.2-0.1-0.6,0.1-0.7c0.2-0.1,0.4-0.1,0.6,0c1.1,0.8,4.4,2.9,6,2.5
		c0.2,0,0.4-0.2,0.5-0.4c0.4-0.6,0.4-2.9-7.4-10.3c-1.5-1.6-2.8-3.4-3.9-5.3c-0.9-1.6-1.9-3-3.2-4.3c-1.1-0.9-9.9,3.4-17.6,7.9
		c0.2,2.1,1.3,13.8,2.1,17.3c0.1,0.5,0.4,1.4,1,1.3c1.2-0.1,3.1-2.9,3.5-7.3c0-0.2,0.2-0.4,0.4-0.5L243.4,392.9z"></path><path class="st1" d="M92.9,324.5l-0.4,2.4l0,0c-0.1,0.6-0.4,1.1-0.9,1.5l-17.1,10.8c-0.8,0.5-1.9,0.4-2.6-0.3L42,307.5
		c-0.4-0.4-0.6-0.9-0.6-1.5l0,0l0.1-0.5l0.3-1.9l1,0.4l47.5,19.5L92.9,324.5z"></path><path class="st1" d="M73.3,340c-0.7,0-1.4-0.3-1.9-0.8l-29.8-31.4c-0.5-0.5-0.7-1.2-0.7-1.9c0,0,0-0.1,0-0.1l0.4-2.3
		c0-0.2,0.1-0.3,0.3-0.4c0.1-0.1,0.3-0.1,0.4,0l1,0.4l50,20.5c0.2,0.1,0.3,0.3,0.3,0.6L93,327c0,0,0,0.1,0,0.1
		c-0.1,0.7-0.5,1.4-1.2,1.7l-17.1,10.8C74.3,339.9,73.8,340,73.3,340z M42.3,304.3L42,306c0,0.4,0.2,0.8,0.4,1.1l29.7,31.4
		c0.5,0.5,1.3,0.6,2,0.2l17.1-10.8c0.4-0.2,0.6-0.6,0.7-1.1v-0.1l0.3-1.9L42.3,304.3z"></path><path class="st0" d="M74.8,336.8l17.1-10.8c1-0.6,1.3-1.9,0.7-2.8c-0.1-0.1-0.2-0.3-0.3-0.4l-29.7-31.4c-0.7-0.7-1.8-0.9-2.6-0.3
		l-17.1,10.9c-1,0.6-1.3,1.9-0.7,2.8c0.1,0.1,0.2,0.3,0.3,0.4l29.7,31.4C72.9,337.2,74,337.3,74.8,336.8z"></path><path class="st1" d="M73.7,337.6c-0.7,0-1.4-0.3-1.9-0.8l-29.7-31.4c-1-1-1-2.7,0.1-3.7c0.1-0.1,0.3-0.2,0.4-0.3l17.1-10.8
		c1.1-0.7,2.4-0.5,3.3,0.4l29.7,31.4c1,1.1,0.9,2.7-0.1,3.7c-0.1,0.1-0.3,0.2-0.4,0.3l-17.1,10.8C74.7,337.5,74.2,337.6,73.7,337.6z
		 M74.8,336.8L74.8,336.8z M61.1,291.1c-0.3,0-0.6,0.1-0.8,0.2l-17.1,10.8c-0.4,0.3-0.7,0.7-0.7,1.1c-0.1,0.5,0.1,0.9,0.4,1.3
		l29.7,31.4c0.5,0.5,1.3,0.7,2,0.2l17.1-10.8c0.4-0.3,0.7-0.7,0.7-1.1c0.1-0.5-0.1-0.9-0.4-1.3l-29.8-31.4
		C61.9,291.3,61.5,291.1,61.1,291.1z"></path><polygon class="st0" points="45.1,303.7 61,293.7 89.7,324 73.8,334.1 	"></polygon><path class="st1" d="M73.8,334.6c-0.1,0-0.3-0.1-0.4-0.2l-28.7-30.4c-0.2-0.2-0.2-0.5,0-0.7c0,0,0,0,0.1-0.1l15.8-10
		c0.2-0.1,0.5-0.1,0.7,0.1L90,323.7c0.1,0.1,0.2,0.3,0.1,0.4c0,0.2-0.1,0.3-0.2,0.4l-15.8,10C74,334.5,73.9,334.6,73.8,334.6z
		 M45.9,303.8l28,29.6l15-9.5l-28-29.5L45.9,303.8z"></path><path class="st0" d="M54.2,324.6c-3.1-2.1-4.5-6.6-2.5-9.5c2-2.9,5-1.7,4.5,3C55.8,322.8,54.2,324.6,54.2,324.6z"></path><path class="st1" d="M54.2,325.1c-0.1,0-0.2,0-0.3-0.1c-1.8-1.2-3.1-3.1-3.5-5.3c-0.4-1.7-0.1-3.5,0.9-4.9c1-1.5,2.4-2.1,3.6-1.7
		c1.2,0.4,2.2,1.9,1.9,5c-0.5,4.8-2.1,6.7-2.2,6.8C54.5,325.1,54.4,325.1,54.2,325.1z M54.1,314c-0.8,0.1-1.5,0.6-1.9,1.4
		c-0.8,1.2-1,2.7-0.7,4.1c0.3,1.7,1.3,3.2,2.6,4.3c1-1.8,1.5-3.8,1.7-5.9c0.3-2.5-0.5-3.6-1.2-3.9C54.4,314,54.3,314,54.1,314z"></path><path class="st0" d="M58.4,328.6c-4.2-0.5-5.8-2.8-5.5-5.3c0.2-2.5,2.7-7.4,4.3-7.1c1.6,0.4,1.7,5.8,1.7,5.8L58.4,328.6z"></path><path class="st1" d="M58.4,329.1L58.4,329.1c-4.1-0.5-6.4-2.7-6.1-5.9c0.2-2.2,1.9-6,3.6-7.1c0.4-0.3,0.9-0.5,1.4-0.4
		c1.9,0.4,2.1,4.9,2.2,6.3l-0.5,6.6C58.9,328.9,58.7,329.1,58.4,329.1L58.4,329.1z M57,316.7c-0.2,0-0.4,0.1-0.5,0.2
		c-1.4,1-3,4.5-3.1,6.4c-0.2,2.5,1.4,4.1,4.6,4.7l0.5-6c-0.1-2.4-0.6-5.1-1.3-5.3H57z"></path><path class="st0" d="M62.4,332.7c-5.4-0.8-6.5-5.9-5.2-10c1.3-4.1,3-4.6,3.8-4.4c0.8,0.2,1.8,5.6,1.8,5.6L62.4,332.7z"></path><path class="st1" d="M62.4,333.2L62.4,333.2c-2.1-0.2-4-1.4-5.1-3.1c-1.3-2.3-1.5-5-0.6-7.5c1.7-5.3,4-4.8,4.4-4.7
		c0.3,0.1,1,0.3,2.2,6c0,0,0,0.1,0,0.1l-0.4,8.8c0,0.1-0.1,0.3-0.2,0.4C62.6,333.2,62.5,333.3,62.4,333.2z M60.6,318.8
		c-0.6,0-1.9,0.8-2.9,4.1c-0.8,2.2-0.6,4.6,0.5,6.6c0.8,1.3,2.2,2.3,3.7,2.6l0.4-8.1c-0.4-2.2-1.1-4.8-1.5-5.2L60.6,318.8z"></path><path class="st0" d="M68,334.9c0,0-6.4,3.4-7.1-2.5c-0.8-5.9,0.7-11.5,2.9-11.6s1.8,11.5,1.8,11.5L68,334.9z"></path><path class="st1" d="M64.4,336.3c-0.7,0-1.3-0.1-1.9-0.4c-1.2-0.7-2-2-2.1-3.5c-0.6-4.6,0.1-9.3,1.7-11.3c0.4-0.5,1-0.9,1.6-1
		c0.3,0,0.7,0.1,0.9,0.4c1.6,1.6,1.5,9.4,1.5,11.5l2.3,2.4c0.1,0.1,0.2,0.3,0.1,0.4c0,0.2-0.1,0.3-0.3,0.4
		C67.1,335.9,65.8,336.3,64.4,336.3z M63.8,321.3L63.8,321.3c-0.4,0.1-0.7,0.3-0.9,0.6c-1.2,1.5-2.1,5.6-1.5,10.5
		c0,1.1,0.6,2.1,1.5,2.7c1.3,0.7,3.2,0.1,4.2-0.3l-1.9-2.1c-0.1-0.1-0.1-0.2-0.1-0.4c0.1-3.7-0.1-9.9-1.2-10.9
		C63.9,321.3,63.8,321.3,63.8,321.3z"></path><path class="st0" d="M96.6,332.3c-2.6-2.6-1-10.3-5-15.9s-9.9-10.1-13.4-10c-3.5,0.1-1,5.9,2.3,7.9c2.1,1.3,4.4,2.3,6.7,3l4.6,4.9
		c0.9,1,1.3,2.4,1.1,3.7l0,0c-0.2,1.3-1,2.4-2.1,3.1l-16.4,10.2l7.4,4L96.6,332.3z"></path><path class="st1" d="M81.9,343.7c-0.1,0-0.2,0-0.2-0.1l-7.4-4c-0.2-0.1-0.3-0.3-0.3-0.4c0-0.2,0.1-0.4,0.2-0.5l16.4-10.2
		c1.8-1.1,2.4-3.6,1.3-5.4c-0.1-0.2-0.3-0.4-0.4-0.6l-4.4-4.8c-2.3-0.8-4.6-1.8-6.7-3c-2.6-1.6-4.7-5.3-4.1-7.4
		c0.3-0.9,1.1-1.5,2.1-1.5c3.6-0.1,9.7,4.4,13.8,10.2c2.2,3.1,2.8,7,3.2,10.1c0.4,2.5,0.7,4.7,1.7,5.7c0.1,0.1,0.2,0.3,0.2,0.4
		c0,0.1-0.1,0.3-0.2,0.4l-14.7,10.9C82.1,343.7,82,343.7,81.9,343.7z M75.5,339.2l6.4,3.4l14-10.4c-1-1.3-1.3-3.5-1.6-5.9
		c-0.5-3.1-1-6.7-3-9.6c-3.9-5.5-9.7-9.9-12.9-9.8c-0.8,0-1,0.4-1.1,0.7c-0.4,1.5,1.4,4.8,3.7,6.2c2.1,1.2,4.3,2.2,6.6,2.9
		c0.1,0,0.2,0.1,0.2,0.1l4.5,4.9c1.9,2,1.7,5.1-0.3,7c-0.2,0.2-0.5,0.4-0.8,0.6L75.5,339.2z"></path><path class="st2" d="M81.9,343.2c-4.7,4.4,5,20.2,22.1,34.5s32.6,17.4,46.9,4.6s42.3-57.5,42.3-57.5s14.3,8,20.4,14.7
		c4.7,5.2,11.8,27.8,15,38.3c0.9,3.1,4.1,4.9,7.2,4c5.9-1.6,15.1-4.8,21.6-10.4c1.9-1.7,2.6-4.4,1.6-6.8l-17.2-42.2l51.5-8.1
		c0,0,1.5-25.3-7.6-44.8c-9.2-19.4-16.3-26.9-25.2-25.8s-65.7,6.1-81.8,18.9s-14.8,27.9-18.9,42.4c-4.1,14.5-29.3,44.5-29.3,44.5
		S105,326,96.6,332.3L81.9,343.2z"></path><path class="st1" d="M241.7,322.9c-0.2,0-0.4-0.1-0.5-0.3c-3.2-7.8-9.2-16.7-31.2-28.6c-0.3-0.1-0.3-0.5-0.2-0.7
		c0.1-0.3,0.5-0.3,0.7-0.2l0,0c22.4,12.1,28.4,21.1,31.7,29.1c0.1,0.3,0,0.6-0.3,0.7C241.8,322.9,241.7,322.9,241.7,322.9z"></path><path class="st1" d="M188.8,322.9c-0.1,0-0.2,0-0.3-0.1c-4.3-3.6-7.9-7.9-10.7-12.7c-0.1-0.2-0.1-0.6,0.2-0.7
		c0.2-0.1,0.5-0.1,0.7,0.2c2.7,4.7,6.3,8.9,10.4,12.4c0.2,0.2,0.3,0.5,0.1,0.7C189.1,322.9,189,322.9,188.8,322.9L188.8,322.9z"></path><path class="st1" d="M171.4,288.1c-0.3,0-0.5-0.2-0.5-0.5c0-0.8-0.1-1.7-0.1-2.7c0-0.3,0.2-0.5,0.5-0.5s0.5,0.2,0.5,0.5
		c0,1,0,1.8,0.1,2.6C171.9,287.8,171.7,288,171.4,288.1C171.4,288.1,171.4,288.1,171.4,288.1L171.4,288.1z"></path><path class="st0" d="M178.3,309.9c-1.2,0.7-2.7,0.9-4,0.4l-15.7-4.6l-5.3-21.6c7.2,1.1,13.3,2.3,18.2,3.4
		C171.9,295.5,174.2,303.1,178.3,309.9z"></path><path class="st1" d="M175.8,311.1c-0.6,0-1.1-0.1-1.7-0.3l-15.7-4.6c-0.2-0.1-0.3-0.2-0.4-0.4l-5.3-21.6c0-0.2,0-0.3,0.1-0.5
		c0.1-0.1,0.3-0.2,0.5-0.2c6.4,1,12.5,2.1,18.2,3.4c0.2,0.1,0.4,0.2,0.4,0.5c0.4,7.8,2.8,15.4,6.8,22.1c0.1,0.1,0.1,0.3,0.1,0.4
		c0,0.1-0.1,0.2-0.2,0.3C177.7,310.8,176.7,311.1,175.8,311.1z M159,305.3l15.4,4.5c1,0.3,2.1,0.3,3.1-0.1
		c-3.9-6.6-6.1-14.1-6.6-21.7c-5.4-1.2-11.1-2.3-17-3.2L159,305.3z"></path><path class="st0" d="M129.8,248.1c15.8-7.8,30.4-1.7,37.7,9.5s5.4,25.4,5.4,25.4l-11.8,15.5l-49.5-11c0,0-7.3-1-6.5-11.3
		C106,265.9,116.1,238.7,129.8,248.1z"></path><path class="st1" d="M161.1,299H161l-49.5-11c0,0-7.7-1.2-6.9-11.8c0.6-8.1,6.5-25.3,15.5-29.6c3.2-1.6,6.5-1.2,9.8,0.9
		c16.6-8.1,31.1-1,38.1,9.8c7.3,11.2,5.5,25.6,5.5,25.8c0,0.1,0,0.2-0.1,0.2l-11.8,15.5C161.4,298.9,161.3,299,161.1,299z
		 M124.1,246.7c-1.3,0-2.5,0.3-3.6,0.9c-8.5,4-14.3,21.1-14.9,28.7c-0.8,9.7,5.7,10.7,6,10.8l49.3,10.9l11.5-15.1
		c0.2-1.5,1.4-14.6-5.3-24.9s-20.9-17.3-37-9.3c-0.2,0.1-0.4,0.1-0.5,0C128,247.4,126.1,246.7,124.1,246.7L124.1,246.7z"></path><path class="st0" d="M175.7,283.1c2.1,9.3-8,10.3-8,10.3s-9.3,27.1-31.3,27.7c-19.1,0.5-25.3-17.1-24.9-38.1
		c5.3-6.8,14.9-16.6,14.9-16.6s11.7,13.9,21.6,14.8s13.9,0.5,14.6,2.4c0.7,1.9-0.5,7.5-0.5,7.5l4.1-0.5l2.4-12.8
		C168.6,277.7,174.4,276.7,175.7,283.1z"></path><path class="st1" d="M135.7,321.6c-6.3,0-11.5-2-15.5-5.9c-6.3-6.3-9.5-17.6-9.1-32.8c0-0.1,0-0.2,0.1-0.3
		c5.2-6.8,14.8-16.5,14.9-16.7c0.1-0.1,0.2-0.2,0.4-0.2c0.1,0,0.3,0.1,0.4,0.2c0.1,0.1,11.7,13.7,21.3,14.6c2.8,0.3,5.1,0.4,7,0.6
		c5.2,0.4,7.4,0.5,8,2.2c0.7,1.6,0,5.4-0.4,7.1l2.9-0.4l2.3-12.4c0-0.2,0.2-0.4,0.4-0.4c0.1,0,6.2-1,7.7,5.8c0.7,2.4,0.3,5-1.1,7
		c-2.1,2.9-5.9,3.7-7,3.8c-1.1,3-10.8,27.2-31.6,27.7L135.7,321.6z M112.1,283.1c-0.3,14.8,2.8,25.8,8.8,31.8
		c3.9,3.9,9.1,5.8,15.5,5.6c21.4-0.5,30.7-27.1,30.8-27.3c0.1-0.2,0.2-0.3,0.4-0.4c0,0,4.4-0.5,6.6-3.5c1.2-1.8,1.6-4.1,1-6.2l0,0
		c-1.1-5-5-5.1-6.2-5l-2.3,12.4c0,0.2-0.2,0.4-0.4,0.4l-4.1,0.5c-0.2,0-0.3,0-0.4-0.2c-0.1-0.1-0.2-0.3-0.1-0.5
		c0.3-1.5,1.1-5.8,0.6-7.2c-0.4-1-2.7-1.2-7.2-1.5c-1.9-0.1-4.2-0.3-7-0.6c-9.1-0.9-19.5-12.2-21.6-14.6
		C124.6,269,116.7,277.2,112.1,283.1z"></path><path class="st1" d="M136.9,286.4c0.7-0.8,1.6-1.4,2.6-1.9c1-0.5,2.1-0.7,3.2-0.6c1.1,0.1,2.2,0.4,3.1,1c0.4,0.3,0.9,0.6,1.3,1
		c0.4,0.4,0.7,0.8,1,1.2c0.2,0.2,0.1,0.6-0.1,0.7c-0.2,0.1-0.4,0.1-0.6,0h-0.1c-0.4-0.2-0.8-0.5-1.1-0.8l-0.6-0.3
		c-0.2-0.1-0.4-0.2-0.6-0.3c-0.8-0.4-1.6-0.6-2.4-0.7c-0.8-0.1-1.7,0-2.5,0.3c-0.8,0.3-1.7,0.6-2.4,1.1l0,0
		c-0.2,0.1-0.6,0.1-0.7-0.2c0,0,0,0,0,0C136.8,286.9,136.8,286.6,136.9,286.4z"></path><path class="st1" d="M116.5,282.7c0.4-0.6,0.9-1,1.5-1.3c0.5-0.3,1.1-0.5,1.7-0.6c1.2-0.2,2.4-0.2,3.6,0.1c1.2,0.3,2.3,0.8,3.2,1.5
		c1,0.7,1.8,1.5,2.5,2.4c0.2,0.2,0.1,0.5-0.1,0.7c-0.2,0.1-0.4,0.1-0.6,0l0,0c-0.8-0.6-1.7-1.2-2.6-1.8c-0.9-0.5-1.8-0.9-2.8-1.1
		c-1-0.2-2-0.3-2.9-0.3c-0.5,0-1,0.1-1.4,0.3c-0.4,0.1-0.8,0.3-1.2,0.6l-0.1,0.1c-0.2,0.2-0.5,0.2-0.7,0c0,0,0,0,0,0
		C116.4,283.2,116.4,282.9,116.5,282.7z"></path><path class="st1" d="M126.2,302.8c-1.8,0.1-3.3-1.3-3.4-3.1c0,0,0-0.1,0-0.1c-0.1-0.9,0.2-1.9,0.8-2.5c1.2-1.3,3.4-1.4,4.4-1.4
		c0.3-3.4,0.4-6.9,0.1-10.3c0-0.3,0.2-0.5,0.5-0.6c0.3,0,0.5,0.2,0.6,0.5c0.3,3.7,0.2,7.4-0.2,11c0,0.3-0.3,0.4-0.5,0.4
		c0,0-2.8-0.1-4.1,1.1c-0.4,0.5-0.6,1.1-0.5,1.7c0,1.3,1,2.3,2.3,2.3c0.1,0,0.1,0,0.2,0c1.8,0,3.2-1.3,3.5-3c0-0.3,0.3-0.5,0.5-0.5
		c0.3,0,0.5,0.3,0.5,0.5c0,0,0,0,0,0C130.5,301.1,128.6,302.8,126.2,302.8L126.2,302.8z"></path><path class="st1" d="M143,293.6c-0.1,1.8-1.2,3.1-2.5,3c-1.2-0.1-2.1-1.6-2-3.4c0-0.5,0.2-1,0.4-1.5l2,1.3l-0.8-2.7
		c0.3-0.1,0.6-0.2,0.9-0.2C142.2,290.3,143.1,291.8,143,293.6z"></path><path class="st1" d="M123.3,289.9c0,1.8-1,3.2-2.2,3.2c-1.2,0-2.2-1.4-2.2-3.2c0-0.5,0.1-1,0.3-1.5l2.1,1.1l-1-2.6
		c0.2-0.2,0.5-0.3,0.8-0.3C122.3,286.7,123.3,288.2,123.3,289.9z"></path><path class="st1" d="M139.5,310.1c-2.2,0-4.4-0.9-6.1-2.3c-0.2-0.1-0.2-0.3-0.2-0.5c0-0.2,0.2-0.3,0.4-0.4l11.3-3.6
		c0.1-0.1,0.3-0.1,0.4,0c0.1,0.1,0.2,0.2,0.2,0.3c0.5,2.1-0.4,4.3-2.3,5.4C142.1,309.8,140.8,310.1,139.5,310.1z M134.8,307.6
		c3,1.9,6.1,1.7,7.8,0.7c1.3-0.8,2.1-2.3,1.9-3.8L134.8,307.6z"></path><path class="st1" d="M340.3,324L340.3,324c-0.3,0-0.5-0.3-0.5-0.5c0,0,0,0,0,0c2.9-36.2-8.5-50.1-27.7-61c-0.2-0.1-0.3-0.5-0.2-0.7
		s0.5-0.3,0.7-0.2c19.6,11,31.1,25.2,28.2,61.9C340.9,323.7,340.6,324,340.3,324C340.3,324,340.3,324,340.3,324z"></path><path class="st2" d="M379.8,404l18.5,21.8c1.3,1.5,1.2,3.8-0.4,5.1c0,0,0,0,0,0L358,465.6c-1.5,1.3-3.8,1.2-5.1-0.4
		c-0.1-0.1-0.2-0.3-0.3-0.4l-0.7-1c0,0-13.9-20.8,4.8-39.2C356.8,424.6,368.9,418.8,379.8,404z"></path><path class="st1" d="M352.2,463.3c-0.2,0-0.3-0.1-0.4-0.2c-0.2-0.2-0.2-0.5,0.1-0.7l44.2-38.3c0.2-0.2,0.5-0.2,0.7,0.1
		c0.2,0.2,0.2,0.5-0.1,0.7l-44.2,38.3C352.4,463.3,352.3,463.3,352.2,463.3z"></path><path class="st1" d="M385.6,434.3c-0.2,0-0.3-0.1-0.4-0.2c-0.1-0.1-7.7-10.7,2.6-20.5c0.2-0.2,0.5-0.2,0.7,0c0,0,0,0,0,0
		c0.2,0.2,0.2,0.5,0,0.7c0,0,0,0,0,0c-9.6,9.2-2.8,18.7-2.5,19.1c0.2,0.2,0.1,0.6-0.1,0.7c0,0,0,0,0,0
		C385.9,434.2,385.8,434.3,385.6,434.3z"></path><path class="st1" d="M362.7,431L362.7,431l-16.1-0.1c-0.3,0-0.5-0.2-0.5-0.5s0.2-0.5,0.5-0.5l0,0l16.1,0.1c0.3,0,0.5,0.2,0.5,0.5
		C363.3,430.7,363.1,430.9,362.7,431C362.8,431,362.8,431,362.7,431z"></path><path class="st1" d="M359.7,436.6L359.7,436.6l-16.1-0.1c-0.3,0-0.5-0.2-0.5-0.5s0.2-0.5,0.5-0.5l0,0l16.1,0.1
		c0.3,0,0.5,0.2,0.5,0.5C360.2,436.4,360,436.6,359.7,436.6z"></path><path class="st2" d="M429.2,310.1l26.7,10.1c1.9,0.7,2.8,2.8,2.1,4.7l-18.2,49.6c-0.7,1.9-2.8,2.9-4.6,2.2
		c-0.2-0.1-0.4-0.1-0.5-0.2l-1.1-0.6c0,0-22.2-11.4-14.6-36.6C418.9,339.3,426.8,328.3,429.2,310.1z"></path><path class="st1" d="M433.3,375.5c-0.1,0-0.1,0-0.2,0c-0.3-0.1-0.4-0.4-0.3-0.6c0,0,0,0,0,0l20.2-55c0.1-0.3,0.4-0.4,0.6-0.3
		c0,0,0,0,0,0c0.3,0.1,0.4,0.4,0.3,0.7l-20.2,55C433.7,375.4,433.5,375.5,433.3,375.5z"></path><path class="st1" d="M448.6,333.8c-0.1,0-0.1,0-0.2,0c-0.1-0.1-11.9-5.6-7.6-19.2c0.1-0.3,0.4-0.4,0.7-0.3c0.2,0.1,0.4,0.3,0.3,0.6
		c-4,12.7,6.6,17.7,7.1,18c0.3,0.1,0.4,0.4,0.2,0.7C449,333.7,448.8,333.9,448.6,333.8L448.6,333.8z"></path><path class="st1" d="M412.8,349.8c-0.2,0-0.4-0.1-0.5-0.3c-0.1-0.3,0-0.6,0.2-0.7c0,0,0,0,0,0l14.1-7.7c0.2-0.1,0.6-0.1,0.7,0.2
		c0,0,0,0,0,0c0.1,0.2,0.1,0.6-0.2,0.7c0,0,0,0,0,0l-14.1,7.7C413,349.8,412.9,349.8,412.8,349.8z"></path><path class="st1" d="M412.9,356.2c-0.2,0-0.4-0.1-0.5-0.3c-0.1-0.2,0-0.6,0.2-0.7c0,0,0,0,0,0l14.1-7.8c0.3-0.1,0.6,0,0.7,0.2
		s0,0.6-0.2,0.7l-14.1,7.7C413.1,356.2,413,356.2,412.9,356.2z"></path></g></svg>