<svg transform="scale(1)" id="_01155_Graduation" xmlns="http://www.w3.org/2000/svg" viewBox="0 0 500 500" class="show_show__wrapper__graphic__5Waiy "><title>React</title><g id="character-2"><path d="M320.47,163.02c5.93-2.65,11.22-2.33,15.77,0s5.87,7.28,7.3,7.85,1.96-1.23,1.96-1.23c0,0-1.8-2.54-4.34-5.61s-10.69-8.1-18.79-4.45c-8.1,3.65-1.91,3.44-1.91,3.44Z" fill="#fff" stroke-width="0"></path><path d="M344.08,171.48c-.23,0-.48-.05-.72-.14-.68-.27-1.22-1.11-1.96-2.28-1.12-1.77-2.65-4.18-5.39-5.59-4.73-2.42-9.9-2.42-15.34.01-.06.03-.12.04-.19.04-.94.03-2.54-.05-2.76-.98-.15-.67.28-1.54,4.44-3.42,8.49-3.83,16.86,1.54,19.38,4.58,2.52,3.05,4.34,5.62,4.36,5.64.09.12.11.28.07.43-.03.12-.35,1.13-1.19,1.54-.22.11-.46.16-.71.16ZM328.63,160.65c2.71,0,5.33.64,7.85,1.93,2.99,1.53,4.6,4.08,5.78,5.94.57.89,1.1,1.74,1.48,1.89.24.1.44.1.62.01.28-.13.48-.47.59-.71-.49-.68-2.08-2.85-4.16-5.37-2.36-2.85-10.23-7.9-18.2-4.31-3.08,1.39-3.71,2.06-3.84,2.27.24.13.96.22,1.62.22,2.83-1.25,5.59-1.88,8.27-1.88ZM320.48,163.02h0,0Z" fill="#3C3D37" stroke-width="0"></path><path d="M253.39,134.31l71.64,14.57c2.22.45,3.38,2.91,2.32,4.91l-32.25,60.72c-.64,1.21-1.95,1.91-3.31,1.78l-66.95-6.37c-2.25-.21-3.66-2.53-2.82-4.63l27.55-68.92c.61-1.52,2.22-2.39,3.82-2.06Z" fill="#fff" stroke-width="0"></path><path d="M292.11,216.81c-.12,0-.25,0-.37-.02l-66.95-6.37c-1.23-.12-2.31-.79-2.95-1.85-.64-1.05-.75-2.32-.29-3.47l27.55-68.92c.7-1.75,2.54-2.74,4.38-2.37h0l71.65,14.57c1.21.25,2.21,1.03,2.74,2.15.53,1.12.5,2.39-.08,3.48l-32.25,60.72c-.68,1.28-2,2.06-3.43,2.06ZM252.71,134.74c-1.16,0-2.23.7-2.68,1.82l-27.55,68.92c-.34.85-.26,1.79.22,2.57.48.78,1.28,1.28,2.19,1.37l66.95,6.37c1.17.1,2.27-.49,2.82-1.52l32.25-60.72c.43-.81.45-1.75.06-2.59-.39-.83-1.13-1.41-2.04-1.6l-71.65-14.57c-.19-.04-.39-.06-.58-.06Z" fill="#3C3D37" stroke-width="0"></path><path d="M269.76,203.86s-13.99-15.56-15.05-18.08,4.05-12.09,15.05-19.7,23.04-8.86,28.71-6.2,16.1,15.06,16.1,15.06l-44.81,28.93Z" fill="#fff" stroke-width="0"></path><path d="M269.76,204.37c-.14,0-.27-.06-.37-.17-.57-.64-14.06-15.65-15.14-18.22-1.28-3.04,4.54-12.91,15.23-20.31,11.15-7.72,23.37-8.98,29.21-6.24,5.7,2.67,15.84,14.68,16.27,15.19.09.11.13.25.11.4-.02.14-.1.27-.22.35l-44.81,28.93c-.08.05-.18.08-.27.08ZM291.53,159.09c-6.04,0-13.99,2.21-21.49,7.4-11.04,7.65-15.75,17.02-14.87,19.1.83,1.95,10.61,13.08,14.68,17.62l43.97-28.39c-1.9-2.21-10.64-12.19-15.56-14.49-1.72-.81-4.03-1.25-6.72-1.25Z" fill="#3C3D37" stroke-width="0"></path><ellipse cx="292.16" cy="189.4" rx="26.67" ry="9.14" transform="translate(-56.02 188.74) rotate(-32.85)" fill="#3C3D37" stroke-width="0"></ellipse><path d="M274.69,206.28c-2.6,0-4.44-.72-5.35-2.14-1.45-2.24-.35-5.88,3.09-10.25,3.33-4.22,8.48-8.69,14.51-12.59,6.03-3.89,12.22-6.75,17.44-8.04,5.39-1.34,9.16-.84,10.61,1.41,2.93,4.54-4.8,14.57-17.6,22.83-6.03,3.89-12.23,6.75-17.44,8.04-1.98.49-3.74.74-5.25.74ZM309.64,173.53c-1.42,0-3.11.23-5.02.71-5.12,1.27-11.2,4.08-17.14,7.91-5.94,3.83-11.01,8.23-14.27,12.37-3.11,3.94-4.21,7.25-3.03,9.08,1.18,1.83,4.65,2.19,9.53.98,5.12-1.27,11.2-4.08,17.14-7.91,11.92-7.69,19.84-17.52,17.3-21.45-.72-1.12-2.29-1.68-4.51-1.68Z" fill="#3C3D37" stroke-width="0"></path><path d="M352.68,178.28s-.09,0-.13-.02c-1.35-.36-5.5-2.13-7.79-4.39-.2-.19-.2-.51,0-.71.19-.2.51-.2.71,0,2.13,2.1,6.12,3.81,7.35,4.14.27.07.43.34.35.61-.06.22-.26.37-.48.37Z" fill="#3C3D37" stroke-width="0"></path><path d="M354.14,177.13s-.06,0-.09,0c-1.98-.37-5.78-2.02-8.27-3.88-.22-.17-.27-.48-.1-.7.17-.22.48-.27.7-.1,2.6,1.94,6.23,3.39,7.86,3.7.27.05.45.31.4.58-.04.24-.25.41-.49.41Z" fill="#3C3D37" stroke-width="0"></path><path d="M355.28,176.01s-.03,0-.05,0c-2.65-.27-6.2-2.27-8.72-3.91-.23-.15-.3-.46-.15-.69.15-.23.46-.3.69-.15,3.43,2.23,6.37,3.56,8.28,3.76.27.03.47.27.45.55-.03.26-.24.45-.5.45Z" fill="#3C3D37" stroke-width="0"></path><path d="M355.88,174.28s-.09,0-.14-.02c-.19-.05-4.66-1.33-8.04-2.94-.25-.12-.35-.42-.24-.67.12-.25.42-.36.67-.24,3.31,1.58,7.84,2.87,7.88,2.88.27.08.42.35.34.62-.06.22-.26.36-.48.36Z" fill="#3C3D37" stroke-width="0"></path><path d="M342.07,167.67c-1.36,1.21-1.29,3.12,1.03,5.37l1.2,1.16c.62.61,1.62.59,2.22-.03l2.24-2.32c.6-.62.59-1.62-.04-2.22-1.61-1.53-4.66-3.86-6.65-1.97Z" fill="#55679C" stroke-width="0"></path><path d="M345.38,175.15c-.54,0-1.05-.21-1.44-.59l-1.2-1.16c-1.4-1.37-2.1-2.68-2.08-3.91.02-.83.38-1.59,1.06-2.19,1.69-1.6,4.3-.9,7.33,1.97.4.38.62.89.64,1.44.01.56-.19,1.09-.58,1.49l-2.24,2.32c-.38.4-.9.62-1.46.63-.01,0-.02,0-.03,0ZM343.85,167.47c-.52,0-1.02.17-1.44.57,0,0,0,0-.01.01-.47.42-.72.92-.73,1.47-.02.93.59,2.02,1.77,3.17l1.2,1.16c.21.2.46.3.76.3.29,0,.55-.12.75-.33l2.24-2.32c.2-.21.31-.48.3-.77,0-.28-.12-.54-.32-.74-1.12-1.06-2.96-2.54-4.52-2.54ZM342.07,167.67h0,0Z" fill="#3C3D37" stroke-width="0"></path><path d="M409.91,229.77c-1.01-6.99,1.07-8.04.75-15.81-.19-4.55-1.76-7.48-3.03-9.12-.83-1.07-.44-2.67.81-3.2,2.04-.87,4.94-1.18,7.1,2.37,3.7,6.07,4.15,11.28,4.15,11.28,0,0,10.09-14.09,15.46-19.19,5.37-5.09,9.11-3.28,5.61,3.16-3.5,6.44-10.35,15.31-10.35,15.31,0,0,12.06-8.02,17.44-10.72s9.42-.06,3.4,4.16c-6.03,4.23-14.87,11.93-14.87,11.93l1.91,1.65s10.15-4.67,16.88-5.99c6.73-1.32,5.4,4.68-2.02,7.65-7.42,2.97-12.71,5.85-12.71,5.85,0,0,8.04,1.5,12.78,4.45,4.74,2.94-1.59,5.69-6.55,4.05-4.95-1.64-8.69-.85-8.69-.85,0,0-6.23,9.87-16.05,6.77,0,0-10.58-5.37-12.02-13.74Z" fill="#fff" stroke-width="0"></path><path d="M425.69,244.61c-1.23,0-2.54-.19-3.92-.62-.52-.25-10.9-5.61-12.36-14.13,0,0,0,0,0-.01-.56-3.83-.19-5.97.19-8.23.34-2.01.69-4.08.55-7.63-.18-4.41-1.69-7.24-2.92-8.84-.5-.64-.66-1.46-.46-2.25.2-.78.74-1.4,1.47-1.72,3.15-1.35,5.89-.44,7.73,2.57,2.69,4.4,3.68,8.33,4.04,10.25,2.42-3.33,10.23-13.92,14.8-18.26,2.88-2.73,5.56-3.75,6.98-2.65,1.3,1,1.09,3.34-.59,6.41-2.4,4.41-6.39,10-8.67,13.08,3.81-2.48,11.21-7.23,15.09-9.18,3.02-1.52,5.98-1.53,6.88-.03.38.63.84,2.38-2.97,5.05-5.18,3.63-12.54,9.92-14.39,11.52l1.23,1.06c1.72-.77,10.63-4.7,16.7-5.89,3.79-.74,4.67.79,4.87,1.49.58,1.96-1.74,5.16-6.62,7.12-5.24,2.1-9.45,4.17-11.43,5.18,2.52.57,7.95,1.97,11.57,4.22,2.21,1.37,2.04,2.65,1.74,3.29-.93,1.99-5.24,2.82-8.71,1.67-4.15-1.37-7.42-1-8.23-.87-.81,1.17-5.47,7.41-12.58,7.41ZM410.4,229.69c1.38,8.02,11.65,13.32,11.75,13.37,9.26,2.92,15.34-6.49,15.41-6.59.07-.11.19-.19.32-.22.16-.03,3.92-.8,8.95.86,3.32,1.1,6.91.1,7.49-1.14.37-.79-.69-1.6-1.36-2.01-4.6-2.86-12.53-4.36-12.61-4.38-.21-.04-.37-.2-.4-.41-.03-.21.07-.42.25-.52.05-.03,5.4-2.93,12.77-5.87,4.54-1.82,6.42-4.6,6.03-5.91-.27-.9-1.66-1.19-3.72-.79-6.59,1.29-16.67,5.91-16.77,5.95-.18.08-.39.05-.54-.08l-1.91-1.65c-.11-.09-.17-.23-.17-.38,0-.15.06-.28.17-.38.09-.08,8.93-7.77,14.91-11.96,2.55-1.79,3.04-3.12,2.68-3.71-.46-.77-2.65-1.06-5.57.41-5.29,2.66-17.26,10.61-17.38,10.69-.2.14-.48.1-.64-.08s-.18-.45-.03-.65c.07-.09,6.86-8.92,10.3-15.24,1.64-3.02,1.49-4.65.86-5.14-.79-.61-2.9-.05-5.68,2.58-5.28,5-15.3,18.97-15.4,19.11-.12.17-.34.24-.54.19-.2-.06-.35-.23-.37-.44,0-.05-.49-5.18-4.08-11.06-1.59-2.6-3.77-3.33-6.48-2.17-.44.19-.77.57-.89,1.05-.13.49-.02,1,.28,1.39,1.32,1.71,2.94,4.73,3.13,9.41.15,3.66-.23,5.88-.56,7.84-.39,2.28-.72,4.25-.19,7.91Z" fill="#3C3D37" stroke-width="0"></path><path d="M440.24,231.45c-.25,0-.46-.18-.5-.44-1.21-9.4-5.89-15.22-14.3-17.78-.26-.08-.41-.36-.33-.62.08-.26.36-.41.62-.33,8.71,2.65,13.76,8.91,15.01,18.61.04.27-.16.52-.43.56-.02,0-.04,0-.06,0Z" fill="#3C3D37" stroke-width="0"></path><path d="M427.13,221.9c-.17,0-.33-.08-.42-.23-2.91-4.61-7.12-5.89-7.16-5.9-.26-.08-.42-.35-.34-.62.08-.26.35-.42.62-.34.19.05,4.6,1.38,7.72,6.33.15.23.08.54-.16.69-.08.05-.18.08-.27.08Z" fill="#3C3D37" stroke-width="0"></path><path d="M208.75,187.27c2.71-6.52.95-8.05,3.19-15.5,1.31-4.36,3.55-6.81,5.19-8.09,1.07-.84,1.08-2.48,0-3.3-1.76-1.35-4.49-2.37-7.47.54-5.09,4.97-6.81,9.9-6.81,9.9,0,0-6.29-16.15-10.23-22.42-3.95-6.26-8.02-5.43-6.22,1.67s6.24,17.39,6.24,17.39c0,0-9.7-10.75-14.24-14.7-4.54-3.95-9.12-2.39-4.32,3.19,4.79,5.59,11.46,15.24,11.46,15.24l-2.26,1.12s-8.68-7.04-14.87-9.98c-6.19-2.94-6.39,3.2.07,7.91,6.45,4.71,10.87,8.81,10.87,8.81,0,0-8.16-.53-13.48,1.15-5.32,1.68.14,5.91,5.34,5.55,5.21-.36,8.63,1.33,8.63,1.33,0,0,3.6,11.11,13.88,10.53,0,0,11.58-2.58,15.04-10.34Z" fill="#fff" stroke-width="0"></path><path d="M193,198.12c-9.22,0-13.01-9.14-13.57-10.67-.76-.32-3.85-1.5-8.19-1.2-3.64.26-7.61-1.61-8.02-3.77-.13-.69.02-1.97,2.5-2.75,4.07-1.29,9.67-1.3,12.26-1.23-1.67-1.47-5.23-4.52-9.79-7.85-4.25-3.1-5.7-6.77-4.65-8.53.37-.62,1.61-1.89,5.09-.23,5.59,2.65,13.25,8.66,14.72,9.84l1.46-.72c-1.4-2.01-6.98-9.93-11.09-14.73-3.03-3.53-2.15-5.11-1.63-5.62,1.24-1.24,4.1-.49,6.66,1.73,3.28,2.85,9.28,9.28,12.35,12.63-1.44-3.55-3.93-9.96-5.16-14.82-.86-3.39-.49-5.71,1.02-6.36,1.65-.71,3.99.94,6.11,4.29,3.36,5.33,8.31,17.53,9.83,21.35.82-1.78,2.76-5.33,6.45-8.93,2.52-2.46,5.4-2.66,8.12-.58.63.48.99,1.22,1,2.02,0,.82-.36,1.57-1,2.07-1.59,1.24-3.75,3.61-5.02,7.84-1.02,3.4-1.19,5.5-1.36,7.53-.19,2.29-.36,4.45-1.85,8.02,0,0,0,0,0,.01-3.52,7.9-14.91,10.52-15.39,10.62-.28.02-.55.02-.81.02ZM172.67,185.2c4.42,0,7.24,1.37,7.37,1.43.12.06.21.17.25.29.04.11,3.6,10.73,13.38,10.18.03-.01,11.29-2.61,14.61-10.04,1.42-3.42,1.58-5.41,1.77-7.71.16-1.98.34-4.23,1.4-7.73,1.34-4.48,3.66-7.01,5.36-8.34.39-.31.62-.77.62-1.28,0-.49-.22-.94-.61-1.24-2.34-1.8-4.63-1.63-6.81.5-4.95,4.83-6.67,9.66-6.69,9.71-.07.2-.25.33-.46.33-.21,0-.4-.12-.47-.32-.06-.16-6.32-16.18-10.19-22.33-2.04-3.24-3.95-4.3-4.87-3.91-.73.31-1.29,1.86-.44,5.19,1.77,6.98,6.17,17.22,6.21,17.32.1.23.02.49-.19.62-.21.13-.48.1-.64-.09-.1-.11-9.73-10.77-14.2-14.66-2.46-2.14-4.66-2.41-5.29-1.77-.49.49-.35,1.9,1.68,4.26,4.76,5.54,11.42,15.19,11.49,15.28.08.12.11.27.07.41-.04.14-.13.26-.26.32l-2.26,1.12c-.17.09-.38.06-.54-.06-.09-.07-8.71-7.03-14.77-9.92-1.9-.9-3.32-.96-3.8-.16-.7,1.17.44,4.33,4.38,7.21,6.4,4.68,10.87,8.81,10.92,8.85.15.14.2.37.12.56-.08.2-.28.31-.49.3-.08,0-8.13-.51-13.3,1.12-.75.24-1.98.76-1.81,1.62.25,1.34,3.47,3.2,6.97,2.96.52-.04,1.03-.05,1.51-.05ZM208.75,187.27h0,0Z" fill="#3C3D37" stroke-width="0"></path><path d="M179.06,181.41c-.06,0-.12-.01-.18-.04-.26-.1-.38-.39-.28-.65,3.61-9.09,10.05-13.9,19.14-14.32.28-.03.51.2.52.48.01.28-.2.51-.48.52-8.79.4-14.76,4.88-18.26,13.69-.08.2-.27.32-.46.32Z" fill="#3C3D37" stroke-width="0"></path><path d="M194.13,175.4c-.13,0-.27-.05-.36-.16-.19-.2-.18-.52.02-.71,4.25-4.02,8.85-4.21,9.05-4.22.27,0,.51.21.52.48,0,.28-.21.51-.48.52-.04,0-4.43.2-8.4,3.95-.1.09-.22.14-.34.14Z" fill="#3C3D37" stroke-width="0"></path><path d="M399.24,225.85l-37.08,43.68s-40.51,12.93-59.5,11.31c-18.99-1.62-53.3-28.17-53.3-28.17l-27.29-64.41c-1.12-2.63-3.84-4.2-6.68-3.83-6.73.88-19.25,3.89-30.25,14.05-1.88,1.74-2.55,4.43-1.69,6.84,4.63,12.96,20.38,55.35,33.51,70.46,15.58,17.94,20.77,23.64,20.77,23.64l-6.88,142.3h138.46l-24.32-115.39s34.19-15.5,50.15-26.91c12.68-9.06,32.32-34.66,39.85-44.78,1.9-2.56,1.89-6.07-.06-8.59-4.78-6.2-14.71-17.31-27.64-22.23-2.85-1.08-6.08-.29-8.05,2.04Z" fill="#fff" stroke-width="0"></path><path d="M369.31,442.21h-138.46c-.14,0-.27-.06-.36-.16-.09-.1-.14-.23-.14-.37l6.87-142.09c-.93-1.03-6.59-7.32-20.64-23.5-13.2-15.2-29.06-57.9-33.6-70.62-.93-2.6-.22-5.5,1.82-7.38,11.17-10.31,23.92-13.31,30.53-14.18,3.04-.4,6.01,1.3,7.21,4.13l27.24,64.29c2.09,1.6,34.81,26.45,52.93,27.99,18.13,1.55,56.57-10.43,59.17-11.25l36.99-43.57.38.32-.38-.32c2.09-2.47,5.55-3.34,8.61-2.18,13.05,4.96,23.06,16.16,27.86,22.39,2.07,2.68,2.09,6.46.06,9.2-7.79,10.48-27.28,35.83-39.96,44.89-14.93,10.67-46.14,25.08-49.87,26.79l24.23,115c.03.15,0,.3-.1.42-.09.12-.24.18-.39.18ZM231.37,441.21h137.32l-24.19-114.79c-.05-.23.07-.46.28-.56.34-.16,34.33-15.61,50.07-26.86,12.56-8.98,31.98-34.23,39.74-44.67,1.77-2.37,1.74-5.66-.05-7.99-4.74-6.15-14.6-17.19-27.42-22.06-2.66-1.01-5.67-.25-7.49,1.89l-37.08,43.68c-.06.07-.14.12-.23.15-.41.13-40.82,12.95-59.7,11.33-18.92-1.62-52.16-27.19-53.56-28.28-.07-.05-.12-.12-.15-.2l-27.29-64.41c-1.03-2.42-3.56-3.87-6.16-3.53-6.49.85-19.01,3.79-29.98,13.92-1.74,1.61-2.35,4.08-1.56,6.31,4.53,12.68,20.34,55.24,33.42,70.3,15.39,17.72,20.71,23.58,20.76,23.63.09.1.14.23.13.36l-6.85,141.78Z" fill="#3C3D37" stroke-width="0"></path><path d="M322.14,279.37s-11.73,17.22-28.68,26.46c-16.95,9.23-17.73-35.59-17.73-35.59l-3.04-1.77s.75,25.12,5.28,34.74c4.52,9.62,13.64,8.95,25.28,1.18s24.32-25.73,24.32-25.73l-5.43.71Z" fill="#55679C" stroke-width="0"></path><path d="M288.12,310.82c-1.1,0-2.15-.14-3.12-.41-3.2-.89-5.71-3.24-7.48-6.99-4.51-9.6-5.29-33.91-5.32-34.94,0-.18.09-.35.24-.44.16-.09.35-.09.51,0l3.04,1.77c.15.09.25.25.25.42,0,.3.63,30.13,9.91,35.53,2.08,1.21,4.4,1.09,7.08-.38,16.64-9.06,28.39-26.13,28.51-26.3.08-.12.21-.2.35-.21l5.43-.71c.2-.03.39.07.49.24.1.17.09.38-.02.55-.13.18-12.86,18.13-24.45,25.86-6,4-11.17,6.01-15.41,6.01ZM273.23,269.36c.19,4.58,1.25,25.25,5.19,33.64,1.63,3.47,3.93,5.64,6.84,6.45,4.45,1.24,10.41-.6,17.71-5.47,9.92-6.61,20.74-20.88,23.51-24.67l-4.06.53c-1.34,1.9-12.81,17.76-28.73,26.43-2.98,1.62-5.69,1.74-8.06.36-9.37-5.46-10.32-32.81-10.4-36.1l-2.01-1.17Z" fill="#3C3D37" stroke-width="0"></path><path d="M305.29,261.29c1.13,11.14,1.16,19.38,1.05,23.53-.05,1.89-1.39,3.51-3.24,3.89-3.05.64-7.86,1.03-12.2-1.25-1.45-.76-2.33-2.29-2.23-3.92l.6-9.17,16.02-13.08Z" fill="#fff" stroke-width="0"></path><path d="M298.46,289.71c-2.48,0-5.21-.45-7.8-1.8-1.63-.86-2.61-2.58-2.49-4.4l.6-9.17c0-.14.08-.27.18-.35l16.02-13.08c.14-.12.34-.15.51-.07.17.07.29.23.31.41,1.15,11.28,1.15,19.62,1.05,23.59-.05,2.14-1.55,3.94-3.64,4.37-1.36.28-2.99.51-4.74.51ZM289.75,274.62l-.59,8.95c-.09,1.42.68,2.78,1.96,3.45,4.15,2.17,8.75,1.85,11.87,1.2,1.63-.34,2.8-1.75,2.84-3.42.1-3.84.09-11.78-.96-22.54l-15.13,12.36Z" fill="#3C3D37" stroke-width="0"></path><path d="M274.56,237.6c-1.7-5.9-2.65-10.88-2.3-12.42s12.8-17.55,25.84-17.55,22.88,3.32,27.62,9.01c0,0,13.6,3.81,11.54,23.75-2.06,19.94-8.52,29.79-12.42,31.16s-21.86,0-21.86,0l-28.43-33.96Z" fill="#fff" stroke-width="0"></path><path d="M317.38,272.66c-6.31,0-13.94-.58-14.43-.61-.13-.01-.26-.08-.35-.18l-28.43-33.96c-.04-.05-.08-.12-.1-.18-1.4-4.87-2.75-10.75-2.3-12.67.35-1.51,12.96-17.93,26.33-17.93s22.94,3.22,27.91,9.08c.72.23,3.76,1.36,6.62,4.49,2.94,3.22,6.21,9.26,5.12,19.74-2.14,20.62-8.79,30.19-12.75,31.58-1.36.48-4.32.64-7.64.64ZM303.24,271.07c2.02.15,17.92,1.26,21.45.01,3.57-1.26,10.01-10.73,12.09-30.74.83-7.98-.84-14.53-4.83-18.92-3.01-3.32-6.31-4.28-6.35-4.29-.1-.03-.18-.08-.25-.16-4.68-5.61-14.6-8.83-27.24-8.83s-24.99,15.71-25.36,17.16c-.32,1.4.58,6.24,2.26,12.07l28.23,33.71Z" fill="#3C3D37" stroke-width="0"></path><path d="M280.21,226.83s-17.19,26.17-9.5,40.39c6.7,12.37,28.31,16.66,44.39-.79,0,0,3.96,3.09,8.29,1.86s6.68-13.49,0-13.74l-5.94,7.13-3.34-2.55s4.08-9.93,4.08-14.92c0,0-5.52-10.2-16.8-14.65l6.41-8.66-12.5,7.05-6.48-1.11,4.63-8.29-9.39,8.41-3.85-.12Z" fill="#fff" stroke-width="0"></path><path d="M290.85,278.55c-1.14,0-2.28-.07-3.42-.21-7.56-.95-13.98-5.01-17.15-10.88-3.27-6.03-2.65-14.76,1.84-25.95,3.32-8.27,7.64-14.89,7.68-14.95.1-.15.26-.21.43-.23l3.65.12,9.24-8.28c.18-.16.45-.17.65-.02.19.15.24.42.12.63l-4.28,7.67,5.61.96,12.34-6.97c.21-.11.46-.07.62.1.16.18.17.44.03.63l-6.03,8.15c10.92,4.59,16.4,14.53,16.46,14.63.04.07.06.16.06.24,0,4.56-3.24,12.91-3.98,14.76l2.66,2.03,5.63-6.76c.1-.12.26-.18.4-.18,2.56.1,4.23,1.84,4.59,4.8.46,3.78-1.43,9.05-4.47,9.92-3.79,1.09-7.24-.92-8.36-1.67-6.96,7.4-15.65,11.46-24.33,11.46ZM280.48,227.34c-1.67,2.63-16.41,26.55-9.32,39.64,3.02,5.58,9.15,9.46,16.4,10.36,9.58,1.2,19.49-2.9,27.19-11.25.18-.19.47-.21.68-.06.04.03,3.82,2.92,7.85,1.77,2.26-.65,4.19-5.19,3.75-8.84-.17-1.38-.83-3.67-3.39-3.9l-5.78,6.93c-.17.21-.47.24-.69.08l-3.34-2.55c-.18-.14-.25-.38-.16-.59.04-.1,3.98-9.72,4.04-14.6-.63-1.1-6.13-10.23-16.49-14.32-.14-.06-.25-.18-.3-.33-.04-.15-.01-.31.08-.44l5.01-6.78-10.46,5.9c-.1.06-.22.08-.33.06l-6.48-1.11c-.16-.03-.3-.13-.37-.28s-.06-.32.01-.46l3.17-5.68-7.16,6.42c-.1.09-.22.14-.35.13l-3.56-.12Z" fill="#3C3D37" stroke-width="0"></path><path d="M296.77,242.48c3.38-1.75,9.33-1.3,9.59,3.45.03.28-.18.52-.45.54-.22.02-.41-.1-.5-.28-.36-.77-.76-1.47-1.32-1.93-1.95-1.45-4.69-1.07-7-.83-.57.12-.84-.72-.31-.95h0Z" fill="#3C3D37" stroke-width="0"></path><path d="M277.81,232.99c3.35-1.65,7.59.46,8.45,4.04.08.26-.06.55-.33.63-.22.07-.45-.02-.58-.21-1.26-1.76-2.86-3.24-5.07-3.49-.71-.1-1.5-.1-2.22-.02-.55.07-.76-.74-.26-.95h0Z" fill="#3C3D37" stroke-width="0"></path><path d="M280.66,252.14c-.34,0-.68-.04-1-.12-1.36-.34-2.68-1.48-2.31-3.65.15-.92.59-1.6,1.31-2.04,1.34-.81,3.27-.46,4.15-.24.44-1.15,1.68-4.61,2.51-8.94.05-.27.31-.45.58-.4.27.05.45.31.4.58-1.03,5.42-2.71,9.51-2.73,9.55-.1.24-.37.37-.62.28-.02,0-2.44-.79-3.78.02-.46.28-.74.72-.84,1.34-.31,1.84,1,2.37,1.57,2.52,1.37.34,3.18-.25,3.7-1.82.09-.26.37-.4.63-.31.26.09.4.37.31.63-.58,1.73-2.3,2.59-3.89,2.59Z" fill="#3C3D37" stroke-width="0"></path><path d="M300.5,249.27c-.71,1.47-2.11,2.26-3.12,1.77s-1.27-2.07-.56-3.54c.21-.44.5-.82.81-1.12l1.29,1.79.21-2.55c.28-.03.55,0,.8.13,1.01.49,1.27,2.07.56,3.53Z" fill="#3C3D37" stroke-width="0"></path><path d="M279.81,241.27c-.71,1.47-2.11,2.26-3.12,1.77s-1.27-2.07-.56-3.54c.21-.44.5-.82.81-1.12l1.29,1.79.21-2.55c.28-.03.55,0,.8.13,1.01.49,1.27,2.07.56,3.53Z" fill="#3C3D37" stroke-width="0"></path><path d="M285.28,262.18c-.13,0-.25,0-.38-.02-1.76-.16-3.36-1.46-4.51-3.64-.13-.24-.03-.55.21-.67.24-.13.55-.04.67.21.99,1.88,2.31,2.98,3.72,3.11,1.22.11,2.48-.52,3.44-1.74.17-.21.49-.25.7-.08.22.17.25.49.08.7-1.08,1.37-2.5,2.13-3.94,2.13Z" fill="#3C3D37" stroke-width="0"></path><path d="M323.66,265.17c-.09,0-.18-.02-.26-.07-.24-.14-.31-.45-.17-.69.95-1.56,1.99-4.6-.11-6.1-.23-.16-.28-.47-.12-.7.16-.23.47-.28.7-.12,2.7,1.92,1.52,5.57.39,7.43-.09.15-.26.24-.43.24Z" fill="#3C3D37" stroke-width="0"></path><path d="M280.21,226.83c-2.77.06-3.67.47-3.67.47" fill="#fff" stroke-width="0"></path><path d="M276.54,227.8c-.19,0-.38-.11-.46-.3-.11-.25,0-.54.25-.66.1-.05,1.08-.46,3.87-.52.29,0,.5.21.51.49s-.21.5-.49.51c-2.58.06-3.47.43-3.48.43-.06.03-.13.04-.2.04Z" fill="#3C3D37" stroke-width="0"></path><path d="M318.2,244.2c2.39,3.06,3.94,6.98,3.94,6.98" fill="#fff" stroke-width="0"></path><path d="M322.14,251.68c-.2,0-.39-.12-.46-.32-.02-.04-1.55-3.88-3.87-6.85-.17-.22-.13-.53.09-.7.22-.17.53-.13.7.09,2.41,3.08,3.95,6.94,4.01,7.1.1.26-.02.55-.28.65-.06.02-.12.04-.18.04Z" fill="#3C3D37" stroke-width="0"></path><path d="M395.83,229.86s26.65,11.86,34.55,30.87l-2.25,2.92s-6.87-16.63-34.39-31.32l2.09-2.47Z" fill="#55679C" stroke-width="0"></path><path d="M428.13,264.15s-.04,0-.07,0c-.18-.02-.33-.14-.4-.3-.07-.17-7.15-16.65-34.17-31.07-.13-.07-.23-.2-.26-.35s.01-.3.11-.42l2.09-2.47c.14-.17.38-.22.58-.13.27.12,26.92,12.16,34.81,31.14.07.17.04.36-.07.5l-2.25,2.92c-.1.12-.24.19-.4.19ZM394.52,232.18c13.96,7.54,22.44,15.56,27.12,20.99,3.93,4.56,5.87,8.05,6.6,9.52l1.57-2.04c-7.38-17.3-30.74-28.73-33.84-30.19l-1.45,1.71Z" fill="#3C3D37" stroke-width="0"></path><path d="M185.74,211.04c10.02-9.68,38.67-17.27,38.67-17.27l1.24,2.93s-27.45,8.61-38.62,18.35l-1.29-4Z" fill="#55679C" stroke-width="0"></path><path d="M187.02,215.55s-.09,0-.13-.02c-.16-.04-.29-.17-.34-.33l-1.29-4c-.06-.18,0-.38.13-.51,10-9.66,37.71-17.08,38.89-17.39.24-.06.49.06.59.29l1.24,2.92c.06.13.05.28,0,.41-.06.13-.17.22-.3.27-.27.08-27.48,8.69-38.44,18.25-.09.08-.21.12-.33.12ZM186.31,211.19l.96,2.99c10.56-8.75,33.9-16.56,37.7-17.79l-.86-2.02c-3.54.98-28.46,8.07-37.8,16.82Z" fill="#3C3D37" stroke-width="0"></path></g><g id="character-3"><path d="M150.23,349.79c6.81,17.33,66.95,18.26,79.68,12.49,12.72-5.76,10.48-20.61,7.14-31.6-2.91-9.62-9.61-17.65-17.05-33.71-1.06-2.28-2.12-4.71-3.2-7.34-2.48-6.05-4.79-11.05-7.24-15.19-6.12-10.35-13.15-15.22-25.85-17.04-8.29-4.45-14.92-1.07-20.47,5.21-1.57,1.76-3.04,3.75-4.44,5.86-3.47,5.24-3.65,9.1-3.75,13.01-.09,3.27-.13,6.57-2.01,10.74-4.14,9.18-.63,14.58-.05,24.78.58,10.19-9.59,15.47-2.77,32.8Z" fill="#fff" stroke-width="0"></path><path d="M204.14,365.97c-14.56,0-31.49-1.92-42.54-6.4-6.36-2.58-10.34-5.81-11.83-9.6h0c-4.38-11.13-1.83-17.47.42-23.06,1.29-3.21,2.52-6.25,2.31-9.89-.18-3.15-.63-5.79-1.07-8.34-.94-5.48-1.75-10.22,1.16-16.67,1.78-3.96,1.87-7.17,1.96-10.27v-.27c.11-3.66.22-7.8,3.84-13.27,1.55-2.34,3.02-4.28,4.48-5.91,6.68-7.56,13.55-9.32,21-5.36,12.51,1.81,19.84,6.66,26.12,17.27,2.29,3.87,4.53,8.58,7.27,15.25,1.07,2.61,2.12,5,3.19,7.32,3.34,7.22,6.51,12.76,9.3,17.65,3.44,6.02,6.16,10.78,7.77,16.12,5.1,16.82,2.61,27.66-7.41,32.2-4.53,2.05-14.52,3.24-25.97,3.24ZM176.38,255.89c-4.38,0-8.6,2.34-12.76,7.05-1.43,1.6-2.87,3.5-4.39,5.8-3.47,5.23-3.57,9.05-3.67,12.75v.27c-.1,3.2-.19,6.52-2.05,10.66-2.79,6.18-2.04,10.55-1.09,16.09.42,2.46.9,5.25,1.08,8.45.22,3.86-1.04,7-2.38,10.32-2.29,5.68-4.66,11.56-.42,22.32h0c1.38,3.52,5.18,6.56,11.28,9.04,19.55,7.94,57.58,7.78,67.73,3.18,9.63-4.36,11.88-14.5,6.87-31-1.58-5.24-4.28-9.95-7.68-15.92-2.8-4.91-5.98-10.48-9.34-17.73-1.08-2.33-2.13-4.74-3.21-7.36-2.68-6.54-4.97-11.35-7.21-15.12-6.2-10.47-13.1-15.02-25.49-16.8-.06,0-.11-.03-.17-.05-2.42-1.3-4.78-1.95-7.09-1.95Z" fill="#3C3D37" stroke-width="0"></path><path d="M192.15,321.74c15.84,5.35,42.32,12.27,51.84,26.92s39.82,93.05,39.82,93.05h-150.97l-7.44-96.52s-21.99-21.92-30.72-49.12c-7-21.82-16.51-45.7-19.99-54.29-.83-2.05-.25-4.39,1.44-5.82,5.89-4.95,20.1-15.11,32.92-10.38,1.34.49,2.37,1.59,2.88,2.93,4.21,11.12,24.81,65.19,30.61,74.55,6.47,10.44,49.61,18.68,49.61,18.68Z" fill="#fff" stroke-width="0"></path><path d="M283.81,442.21h-150.97c-.26,0-.48-.2-.5-.46l-7.42-96.34c-1.84-1.88-22.4-23.28-30.71-49.19-6.95-21.64-16.29-45.15-19.98-54.25-.91-2.26-.28-4.82,1.58-6.39,5.67-4.76,20.26-15.32,33.42-10.47,1.44.53,2.6,1.7,3.17,3.22,4.09,10.8,24.79,65.14,30.57,74.46,6.28,10.13,48.85,18.37,49.28,18.45.02,0,.04,0,.07.02,1.95.66,4.06,1.34,6.28,2.06,15.77,5.1,37.37,12.07,45.82,25.07,9.45,14.53,39.56,92.36,39.86,93.14.06.15.04.33-.05.46-.09.14-.25.22-.41.22ZM133.3,441.21h149.78c-3-7.74-30.59-78.56-39.51-92.28-8.26-12.7-29.66-19.61-45.29-24.66-2.21-.71-4.32-1.39-6.26-2.05-2.21-.42-43.44-8.46-49.91-18.9-5.83-9.4-26.56-63.82-30.65-74.64-.47-1.24-1.41-2.2-2.58-2.63-12.66-4.66-26.9,5.65-32.43,10.3-1.53,1.28-2.05,3.39-1.3,5.25,3.7,9.11,13.05,32.65,20,54.32,8.59,26.77,30.38,48.7,30.6,48.92.08.08.14.2.15.32l7.4,96.06Z" fill="#3C3D37" stroke-width="0"></path><path d="M246.66,442.21c-.22,0-.42-.15-.48-.37l-21.67-82.62c-.07-.27.09-.54.36-.61.27-.07.54.09.61.36l21.67,82.62c.07.27-.09.54-.36.61-.04.01-.09.02-.13.02Z" fill="#3C3D37" stroke-width="0"></path><path d="M211.17,328.08s-25.57,34.11-33.78,38.46c-8.22,4.35-16.87-53.17-16.87-53.17l-3.9-1.46s8.35,51.42,13.76,56.9,12.03.57,17.89-6.62c5.86-7.19,26.62-32.73,26.62-32.73l-3.72-1.38Z" fill="#55679C" stroke-width="0"></path><path d="M175.49,371.65c-2,0-3.84-.84-5.47-2.5-5.46-5.54-13.55-55.07-13.89-57.17-.03-.18.04-.35.18-.47.14-.11.33-.14.49-.08l3.9,1.46c.17.06.29.21.32.39.02.12,1.88,12.46,4.65,25.11,4.6,20.98,8.04,26.64,10.11,27.68.48.24.92.25,1.37,0,8.03-4.25,33.36-37.97,33.62-38.31.13-.18.37-.25.57-.17l3.72,1.38c.15.06.27.18.31.34s0,.32-.09.45c0,0-20.76,25.54-26.62,32.73-4.87,5.97-9.07,8.96-12.82,9.14-.11,0-.23,0-.34,0ZM157.25,312.67c1.12,6.71,8.62,50.85,13.48,55.78,1.54,1.56,3.2,2.29,5.06,2.19,3.41-.16,7.47-3.11,12.09-8.78,5.36-6.57,23.15-28.46,26.18-32.18l-2.71-1.01c-2.7,3.59-25.82,34.11-33.73,38.3-.73.39-1.52.39-2.29,0-7.54-3.8-14.58-48.78-15.26-53.25l-2.82-1.05Z" fill="#3C3D37" stroke-width="0"></path><path d="M241.92,281.34c-1.39,0-5.86-.64-8.66-2.24-.24-.14-.32-.44-.19-.68.14-.24.44-.32.68-.19,2.6,1.48,6.89,2.11,8.16,2.11.28,0,.5.22.5.5s-.22.5-.5.5Z" fill="#3C3D37" stroke-width="0"></path><path d="M242.42,279.87c-2.15,0-5.73-.6-8.33-1.64-.26-.1-.38-.39-.28-.65.1-.26.4-.38.65-.28,3.01,1.2,6.9,1.68,8.54,1.55.28-.03.51.19.54.46.02.28-.19.52-.46.54-.2.01-.42.02-.66.02Z" fill="#3C3D37" stroke-width="0"></path><path d="M242.58,278.57c-2.51,0-5.69-.85-8.09-1.63-.26-.09-.41-.37-.32-.63.09-.26.37-.41.63-.32,3.89,1.27,7.07,1.8,8.97,1.5.27-.05.53.14.57.41.04.27-.14.53-.41.57-.42.07-.87.1-1.35.1Z" fill="#3C3D37" stroke-width="0"></path><path d="M243.99,276.65h0c-.2,0-4.84-.08-8.53-.77-.27-.05-.45-.31-.4-.58.05-.27.32-.45.58-.4,3.6.67,8.31.75,8.36.75.28,0,.5.23.49.51,0,.27-.23.49-.5.49Z" fill="#3C3D37" stroke-width="0"></path><path d="M182.1,263.63s-43.3-17.78-45.55-21.31,48.41-19.9,54.63-20.04c6.21-.14,29.64,17.48,37.69,24.69,8.05,7.21,7.9,10.67,1.41,13.74s-27.38,6.88-27.38,6.88l-20.79-3.95Z" fill="#fff" stroke-width="0"></path><path d="M202.89,268.08s-.06,0-.09,0l-20.79-3.95s-.07-.02-.1-.03c-4.45-1.83-43.51-17.95-45.79-21.51-.12-.18-.27-.57,0-1.08,2.46-4.62,48.8-19.59,55.03-19.73.03,0,.05,0,.08,0,6.73,0,30.79,18.41,37.95,24.82,4.71,4.22,6.65,7.2,6.29,9.65-.27,1.86-1.86,3.42-5,4.91-6.48,3.06-26.65,6.76-27.51,6.92-.03,0-.06,0-.09,0ZM182.24,263.15l20.64,3.92c1.51-.28,21.02-3.92,27.17-6.82,2.81-1.33,4.22-2.65,4.44-4.15.3-2.06-1.6-4.85-5.97-8.77-8.18-7.33-31.24-24.56-37.27-24.56-.02,0-.05,0-.07,0-2.85.07-16.33,3.92-29.44,8.41-19.55,6.71-24.75,10.05-24.77,10.88,1.59,2.47,27.93,13.95,45.27,21.08Z" fill="#3C3D37" stroke-width="0"></path><path d="M193.63,305.76c.42,9.05,1.75,19.56,1.75,19.56,0,0-2.25,8.54-11.16,9.25-8.91.71-9.16-6.89-9.14-8.46.03-1.57,1.32-6.64,1.54-8.34.22-1.7,17.01-12.01,17.01-12.01Z" fill="#fff" stroke-width="0"></path><path d="M183.08,335.12c-2.49,0-4.48-.69-5.93-2.05-2.39-2.24-2.59-5.62-2.57-6.97.02-.98.47-3.11.91-5.17.28-1.31.55-2.55.63-3.22.23-1.75,12.13-9.23,17.24-12.37.15-.09.34-.1.5-.02.16.08.26.24.27.42.42,8.92,1.73,19.42,1.74,19.52,0,.06,0,.13-.01.19-.02.09-2.45,8.89-11.6,9.62-.41.03-.8.05-1.18.05ZM193.17,306.63c-7.74,4.78-15.7,10.18-16.06,11.23-.09.68-.36,1.94-.64,3.27-.41,1.92-.88,4.09-.89,4.98-.02,1.21.16,4.25,2.25,6.22,1.46,1.37,3.59,1.96,6.35,1.73,8.06-.65,10.42-7.85,10.69-8.79-.13-1.07-1.26-10.36-1.7-18.65Z" fill="#3C3D37" stroke-width="0"></path><path d="M158.56,278.98s-9.17,23.07-.14,33.09c9.04,10.02,33.05,9.42,40.79-5.89,0,0,4.56,5.69,8.9.11,4.35-5.58-.6-12.05-7.28-9.44,0,0-2.14-6.49-13.79-11.09-11.65-4.6-17.42-12.39-17.42-12.39,0,0-2.32,3.99-11.07,5.61Z" fill="#fff" stroke-width="0"></path><path d="M176.12,319.28c-7.34,0-14.14-2.52-18.07-6.88-3.85-4.28-5.01-11.25-3.44-20.72,1.16-6.99,3.46-12.83,3.48-12.89.06-.16.21-.28.37-.31,8.43-1.56,10.71-5.33,10.73-5.37.08-.15.24-.24.4-.25.17,0,.33.07.43.2.06.08,5.83,7.73,17.2,12.22,10.06,3.97,13.15,9.3,13.89,10.92,3.13-1.04,6.21-.26,7.94,2.05,1.77,2.37,1.55,5.64-.55,8.33-1.36,1.74-2.89,2.63-4.55,2.64-.01,0-.02,0-.03,0-2.09,0-3.8-1.4-4.6-2.2-3.56,6.48-10.41,10.82-18.93,11.96-1.43.19-2.87.29-4.28.29ZM158.93,279.42c-.95,2.53-8.35,23.19-.13,32.31,4.47,4.96,12.9,7.42,21.47,6.27,8.46-1.13,15.2-5.52,18.5-12.05.08-.15.23-.25.39-.27.17-.02.34.05.44.18.02.02,1.94,2.38,4.33,2.38,0,0,.02,0,.03,0,1.34-.01,2.61-.77,3.76-2.26,2.2-2.82,1.72-5.53.54-7.12-1.53-2.06-4.37-2.67-7.23-1.55-.13.05-.27.04-.39-.01-.12-.06-.22-.17-.26-.29-.02-.06-2.25-6.34-13.5-10.79-9.91-3.91-15.68-10.2-17.22-12.04-.99,1.19-3.92,3.92-10.72,5.23Z" fill="#3C3D37" stroke-width="0"></path><path d="M177.24,290.45c2.1-.94,4.51-.91,6.67-.22.72.22,1.4.58,2.02.99.23.15.3.47.14.7-.11.17-.32.25-.51.22-2.7-.53-5.31-.87-8.04-.74-.56.09-.8-.73-.29-.96h0Z" fill="#3C3D37" stroke-width="0"></path><path d="M157.17,285.89c3.31-.51,6.75.33,9.61,2.02.24.15.31.46.17.7-.11.19-.33.27-.53.23-1.58-.32-3.09-.73-4.61-1.08-1.51-.34-3.09-.65-4.61-.88-.55-.06-.57-.91-.02-.99h0Z" fill="#3C3D37" stroke-width="0"></path><path d="M164.45,302.46h-.01c-1.59,0-2.7-1.07-2.82-2.71-.06-.84.18-1.54.71-2.08.97-.97,2.68-1.1,3.51-1.11.14-1.13.46-4.33.26-8.17-.01-.28.2-.51.47-.53.27-.03.51.2.53.47.26,4.9-.3,8.65-.32,8.81-.04.26-.27.45-.53.42-.62-.04-2.4,0-3.2.8-.33.33-.46.75-.42,1.29.12,1.6,1.32,1.78,1.83,1.78h0c1.23,0,2.62-.88,2.74-2.3.02-.27.26-.48.54-.46.27.02.48.26.46.54-.17,1.99-2.07,3.21-3.74,3.21Z" fill="#3C3D37" stroke-width="0"></path><path d="M181.67,297.2c-.3,1.42-1.34,2.39-2.31,2.18-.99-.21-1.53-1.51-1.23-2.93.09-.42.25-.81.46-1.14l1.49,1.26-.36-2.24c.24-.09.47-.11.72-.06.97.21,1.53,1.51,1.23,2.92Z" fill="#3C3D37" stroke-width="0"></path><path d="M162.29,293.11c-.3,1.42-1.34,2.39-2.31,2.18-.99-.21-1.53-1.51-1.23-2.93.09-.42.25-.81.46-1.14l1.49,1.26-.36-2.24c.24-.09.47-.11.72-.06.97.21,1.53,1.51,1.23,2.92Z" fill="#3C3D37" stroke-width="0"></path><path d="M170.56,310.11c-1.4,0-2.86-.78-4.15-2.24-.18-.21-.16-.52.04-.71.21-.18.52-.17.71.04,1.23,1.39,2.58,2.05,3.81,1.87,1.06-.16,1.99-.96,2.55-2.19.11-.25.41-.36.66-.25.25.12.36.41.25.66-.71,1.55-1.91,2.56-3.31,2.77-.18.03-.37.04-.55.04Z" fill="#3C3D37" stroke-width="0"></path><path d="M205.43,303.08c-.23,0-.43-.16-.49-.39-.22-.95-.67-1.63-1.35-2.02-1.36-.78-3.23-.19-3.24-.18-.26.08-.54-.06-.63-.32-.08-.26.06-.54.32-.63.09-.03,2.3-.73,4.04.26.93.53,1.55,1.43,1.83,2.67.06.27-.11.54-.38.6-.04,0-.07.01-.11.01Z" fill="#3C3D37" stroke-width="0"></path><path d="M201.54,306.33c-.24,0-.45-.17-.49-.41-.05-.27.13-.53.4-.58.63-.11,1.14-.5,1.52-1.14.74-1.28.72-3.11.5-3.74-.09-.26.04-.55.3-.64.26-.09.55.04.64.3.32.91.3,3.06-.58,4.57-.52.9-1.28,1.46-2.21,1.62-.03,0-.06,0-.09,0Z" fill="#3C3D37" stroke-width="0"></path><path d="M156.62,272.54s7.31-4.1,18.46-5.09c11.15-.99,34.48,7,34.48,7,0,0,3.35-16.18,2.65-19.07s-12-8.68-26.47-8.4c-14.47.28-25.91.83-27.07,5.2s-2.05,20.36-2.05,20.36Z" fill="#3C3D37" stroke-width="0"></path><path d="M209.55,274.94c-.05,0-.11,0-.16-.03-.23-.08-23.34-7.93-34.27-6.97-10.92.97-18.19,4.99-18.26,5.03-.16.09-.35.09-.51-.01-.15-.1-.24-.27-.23-.45.04-.65.91-16.08,2.07-20.46,1.24-4.7,12.2-5.27,27.54-5.57,14.52-.31,26.17,5.53,26.96,8.78.72,2.97-2.51,18.62-2.65,19.29-.03.14-.12.26-.24.33-.08.04-.16.07-.25.07ZM177.16,266.86c10.75,0,28.61,5.79,32.02,6.93.99-4.84,3.07-16.1,2.54-18.3-.6-2.45-11.62-8.32-25.97-8.01-13.92.27-25.54.82-26.6,4.83-.98,3.69-1.78,16-1.98,19.39,2.2-1.07,8.82-3.95,17.87-4.75.67-.06,1.38-.09,2.13-.09Z" fill="#3C3D37" stroke-width="0"></path><path d="M215.4,236.22c4.99,4.27,5.13,18.66,6.26,25.58,1.05,6.42,4.17,11.51,7.66,13.33.45.23,1,.12,1.3-.28h0c.36-.46.27-1.13-.21-1.46-1.64-1.15-5.03-4.06-5.95-8.94-1.23-6.51-2.3-20.13-4.58-24.83s-5.79-6.14-7.78-5.79l3.3,2.4Z" fill="#fff" stroke-width="0"></path><path d="M229.81,275.75c-.24,0-.49-.06-.72-.18-3.78-1.97-6.89-7.35-7.92-13.69-.26-1.61-.47-3.64-.7-5.79-.72-6.89-1.7-16.32-5.38-19.48l-3.28-2.39c-.16-.12-.24-.32-.19-.52.05-.2.2-.34.4-.38,2.39-.42,6.01,1.3,8.32,6.07,1.59,3.28,2.58,10.64,3.45,17.14.4,2.96.78,5.76,1.17,7.82.9,4.77,4.32,7.62,5.75,8.63.34.24.56.6.62,1.01.06.41-.05.84-.31,1.17-.3.38-.75.59-1.21.59ZM213.77,234.42l1.92,1.4s.02.02.03.02c3.99,3.41,4.96,12.69,5.74,20.15.22,2.13.43,4.15.69,5.73.99,6.05,3.89,11.14,7.4,12.97.23.12.52.06.68-.14.09-.12.13-.26.11-.41-.02-.14-.09-.26-.21-.34-1.9-1.33-5.22-4.31-6.16-9.26-.39-2.08-.77-4.89-1.17-7.87-.86-6.42-1.84-13.7-3.36-16.84-1.65-3.41-3.92-4.96-5.66-5.41Z" fill="#3C3D37" stroke-width="0"></path><path d="M229.07,273.8c-1,1.52-.45,3.34,2.38,4.93l1.45.82c.76.42,1.72.15,2.14-.61l1.57-2.82c.42-.76.15-1.72-.61-2.13-1.95-1.06-5.49-2.53-6.93-.19Z" fill="#55679C" stroke-width="0"></path><path d="M233.67,280.25c-.35,0-.7-.09-1.01-.26l-1.45-.82c-1.71-.96-2.72-2.05-3.01-3.25-.2-.81-.04-1.63.46-2.39,1.23-1.98,3.92-1.98,7.59.02.48.26.83.7.98,1.23.16.54.09,1.1-.18,1.59l-1.57,2.82c-.27.48-.71.83-1.24.98-.19.05-.38.08-.57.08ZM231.53,273.05c-.84,0-1.58.27-2.03,1.02,0,0,0,0,0,.01-.35.53-.46,1.07-.32,1.61.22.9,1.09,1.8,2.53,2.61l1.45.82c.25.14.54.17.81.1.27-.08.5-.26.64-.51l1.57-2.82c.14-.25.17-.55.09-.82-.08-.27-.26-.49-.5-.63-1.14-.62-2.83-1.38-4.23-1.38ZM229.07,273.8h0,0Z" fill="#3C3D37" stroke-width="0"></path><path d="M75.46,243.69s6.16-5.3,14.28-8.92c8.12-3.63,22.87-4.46,22.87-4.46l1.65,4.34s-28.59,2.19-36.4,15.06l-2.4-6.02Z" fill="#55679C" stroke-width="0"></path><path d="M77.86,250.21s-.03,0-.04,0c-.19-.02-.35-.14-.42-.31l-2.4-6.02c-.08-.2-.02-.43.14-.56.06-.05,6.31-5.38,14.4-9,8.11-3.62,22.44-4.47,23.05-4.5.24-.03.42.12.5.32l1.65,4.34c.06.15.04.31-.04.45-.08.13-.23.22-.38.23-.28.02-28.42,2.32-36.01,14.82-.09.15-.25.24-.43.24ZM76.06,243.85l1.91,4.79c3.52-5.06,10.54-9.01,20.9-11.76,6.66-1.77,12.73-2.47,14.7-2.66l-1.29-3.38c-2.32.16-15.1,1.16-22.33,4.39-7.01,3.13-12.61,7.57-13.88,8.62Z" fill="#3C3D37" stroke-width="0"></path><path d="M125.4,345.69c-.25,0-.47-.19-.5-.45l-1.94-18.87c-.03-.27.17-.52.45-.55.27-.03.52.17.55.45l1.94,18.87c.03.27-.17.52-.45.55-.02,0-.03,0-.05,0Z" fill="#3C3D37" stroke-width="0"></path><path d="M68.53,163.46c-5.9-1.63-18.51,8.14-15.46,17.09,3.05,8.95,24.41,43.74,28.48,53.1s10.91,36.87,13.89,41.06c2.97,4.19,9.72,2.44,9.72,2.44,0,0,12.11-1.75,11.18-8.38-.93-6.64-23.86-58.9-23.86-58.9,0,0-7.33-19.09-9.55-28.17-2.21-9.08-2.44-12.57-3.96-13.74s-9.43.58-9.43.58l-1.01-5.09Z" fill="#fff" stroke-width="0"></path><path d="M101.94,278.03c-2.26,0-5.17-.56-6.92-3.03-1.65-2.33-4.36-11.29-7.22-20.78-2.39-7.91-4.86-16.09-6.72-20.38-1.78-4.09-6.9-13.11-12.33-22.66-7.1-12.49-14.44-25.41-16.17-30.48-1.32-3.87.04-8.34,3.75-12.27,3.78-4.01,9.08-6.35,12.32-5.46.18.05.32.2.36.38l.91,4.59c2.07-.43,7.87-1.51,9.34-.38,1.21.93,1.65,2.94,2.61,7.33.39,1.78.87,3.99,1.53,6.68,2.18,8.94,9.45,27.92,9.53,28.11.93,2.12,22.96,52.39,23.89,59.01.99,7.05-11.08,8.87-11.6,8.95-.1.03-1.49.38-3.28.38ZM67.09,163.77c-2.93,0-6.97,2.1-10.02,5.35-3.44,3.65-4.72,7.75-3.53,11.26,1.7,4.97,9.34,18.43,16.09,30.31,5.44,9.58,10.58,18.62,12.38,22.76,1.89,4.34,4.36,12.55,6.76,20.49,2.71,8.99,5.52,18.29,7.08,20.49,2.74,3.86,9.13,2.27,9.19,2.25.17-.03,11.66-1.76,10.81-7.83-.91-6.49-23.6-58.25-23.83-58.77-.08-.21-7.38-19.25-9.57-28.25-.66-2.7-1.14-4.92-1.53-6.71-.88-4.03-1.32-6.05-2.24-6.75-.92-.7-5.82-.03-9.02.67-.13.03-.27,0-.38-.07-.11-.07-.19-.19-.22-.32l-.95-4.77c-.32-.06-.66-.09-1.01-.09Z" fill="#3C3D37" stroke-width="0"></path><path d="M105.13,277.65c-1.56,0-2.93-.74-3.59-1.93-.55-.99-.86-2.72.79-5.32,2.22-3.52,6.3-4.05,8.08-4.11-2.34-4.52-14.88-28.76-21.98-42.18-8.4-15.87-16.45-40.67-19.38-55.47-.05-.27.12-.53.39-.59.27-.06.53.12.59.39,2.92,14.73,10.93,39.4,19.29,55.19,7.81,14.77,22.22,42.65,22.37,42.93.08.16.07.35-.03.5-.1.15-.27.24-.45.22-.06,0-5.51-.33-8.03,3.64-1.1,1.73-1.36,3.22-.76,4.3.48.86,1.54,1.42,2.72,1.42,0,0,.02,0,.02,0,.27,0,.5.22.5.5,0,.28-.22.5-.5.5h-.03Z" fill="#3C3D37" stroke-width="0"></path><path d="M105.08,268.35l2.39,4.16s4.55-1.36,3.76-5.71c0,0-3.21-.28-6.15,1.55Z" fill="#3C3D37" stroke-width="0"></path><path d="M107.47,273c-.18,0-.34-.09-.43-.25l-2.39-4.16c-.13-.23-.06-.53.17-.67,3.05-1.9,6.32-1.64,6.46-1.62.22.02.41.19.45.41.86,4.73-4.06,6.26-4.11,6.28-.05.01-.1.02-.14.02ZM105.76,268.53l1.94,3.36c.96-.39,3.4-1.69,3.1-4.61h-.04c-.88,0-2.98.13-5,1.25Z" fill="#3C3D37" stroke-width="0"></path><path d="M100.56,224.36s.11-11.85-.87-17.61c-.98-5.75-13.23-8.07-17.36-8.03s-1.09,4.56,3.04,6.95,6.19,2.82,6.19,2.82l7.29,16.09,1.72-.22Z" fill="#fff" stroke-width="0"></path><path d="M98.84,225.08c-.19,0-.37-.11-.46-.29l-7.19-15.87c-.68-.19-2.7-.86-6.08-2.81-2.89-1.67-5.69-4.64-5.19-6.54.16-.6.7-1.33,2.4-1.34,3.47-.03,16.76,1.99,17.86,8.45.97,5.73.88,17.21.88,17.69,0,.25-.19.46-.44.49l-1.72.22s-.04,0-.06,0ZM100.56,224.37h0,0ZM82.46,199.23s-.08,0-.12,0c-.59,0-1.32.11-1.44.6-.28,1.07,1.72,3.67,4.73,5.42,3.98,2.3,6.02,2.76,6.04,2.76.15.03.29.14.35.28l7.14,15.75.92-.12c0-2.19-.01-12.06-.86-17.08-.86-5.08-12.02-7.62-16.74-7.62Z" fill="#3C3D37" stroke-width="0"></path><path d="M66.81,215.49c-3.1-1.47-4.62-3.69-3.64-6.84s3.64-7.28,5.54-8.15,2.17,1.74,1.25,3.69-1.41,5.92-1.41,5.92l-1.74,5.38Z" fill="#fff" stroke-width="0"></path><path d="M66.81,215.99c-.07,0-.15-.02-.21-.05-3.54-1.68-4.89-4.25-3.9-7.44.99-3.19,3.68-7.48,5.81-8.45,1.02-.46,1.62-.08,1.9.19.87.88.66,2.81.01,4.17-.88,1.86-1.36,5.73-1.37,5.77l-1.76,5.47c-.04.14-.15.25-.28.31-.06.03-.13.04-.2.04ZM69.39,200.83c-.11,0-.27.03-.48.13-1.67.76-4.28,4.65-5.27,7.84-.8,2.57.14,4.53,2.86,5.99l1.56-4.82c0-.07.49-3.97,1.44-5.98.59-1.25.58-2.63.18-3.04-.03-.04-.11-.12-.29-.12Z" fill="#3C3D37" stroke-width="0"></path><path d="M69.96,221.09c-3.75-2.28-4.89-5.32-3.96-8.15s3.42-7.22,5.54-6.9,2.06,2.06,1.22,3.75-1.06,6.41-1.06,6.41l-1.74,4.89Z" fill="#fff" stroke-width="0"></path><path d="M69.96,221.58c-.09,0-.18-.02-.26-.07-3.73-2.27-5.25-5.45-4.18-8.73.83-2.54,3.4-7.65,6.09-7.24.95.15,1.6.55,1.94,1.21.54,1.04.11,2.34-.35,3.25-.65,1.3-.95,4.92-1.01,6.21,0,.05-.01.1-.03.14l-1.74,4.89c-.05.14-.16.25-.3.3-.05.02-.11.03-.17.03ZM71.3,206.52c-1.65,0-3.93,3.81-4.83,6.57-.87,2.65.31,5.26,3.23,7.23l1.5-4.22c.03-.64.28-4.88,1.11-6.53.49-.98.62-1.84.36-2.35-.19-.36-.59-.59-1.21-.68-.05,0-.1-.01-.15-.01Z" fill="#3C3D37" stroke-width="0"></path><path d="M74.31,225.97c-5.54-1.84-5.44-4.88-5.11-7.11s3.27-7.11,5.11-7.71,2.32,1.44,2.06,3.48-1.31,5.77-1.31,5.77l-.75,5.57Z" fill="#fff" stroke-width="0"></path><path d="M74.31,226.47c-.05,0-.11,0-.16-.03-5.52-1.84-5.85-4.9-5.45-7.66.34-2.32,3.35-7.43,5.45-8.12.92-.3,1.52-.03,1.86.26,1.08.9.95,2.93.85,3.76-.26,2.05-1.28,5.69-1.32,5.84l-.74,5.5c-.02.15-.1.28-.23.36-.08.05-.17.08-.26.08ZM74.92,211.54c-.12,0-.27.02-.45.08-1.6.52-4.46,5.17-4.77,7.31-.32,2.21-.28,4.68,4.2,6.36l.67-4.96c.02-.1,1.06-3.79,1.31-5.77.17-1.35-.02-2.47-.49-2.86-.06-.05-.19-.16-.46-.16Z" fill="#3C3D37" stroke-width="0"></path><path d="M80.37,231.16s-6.07-.09-7.8-4.76,4.45-12.48,7.16-11.18-2.71,7.89-2.71,7.89l3.35,8.04Z" fill="#fff" stroke-width="0"></path><path d="M80.37,231.66h0c-.26,0-6.43-.15-8.26-5.08-1.19-3.2,1.06-7.9,3.82-10.42,1.53-1.4,2.96-1.89,4.02-1.38.52.25.86.68.99,1.25.48,2.18-2.48,6.1-3.34,7.18l3.24,7.76c.06.16.05.33-.05.47-.09.14-.25.22-.41.22ZM79.05,215.58c-.65,0-1.53.46-2.46,1.32-2.54,2.31-4.57,6.62-3.56,9.33,1.24,3.33,4.93,4.16,6.56,4.36l-3.04-7.28c-.07-.17-.04-.37.08-.51,1.05-1.27,3.69-4.94,3.33-6.57-.06-.27-.2-.44-.44-.56-.13-.06-.29-.1-.46-.1Z" fill="#3C3D37" stroke-width="0"></path></g><g id="confety"><path d="M118.79,135.21c-3.89,8.15,0,16.68,3.71,19.83l8.15-4.26s-5.19-2.22-5-7.78,1.48-7.78,1.48-7.78h-8.34Z" fill="#55679C" stroke-width="0"></path><path d="M122.49,155.53c-.12,0-.23-.04-.32-.12-3.9-3.31-7.81-12.09-3.83-20.42.08-.17.26-.28.45-.28h8.34c.18,0,.34.1.43.25s.09.35,0,.5c-.01.02-1.24,2.22-1.42,7.55-.17,5.14,4.5,7.22,4.7,7.31.18.08.29.25.3.44,0,.19-.1.37-.27.46l-8.15,4.26c-.07.04-.15.06-.23.06ZM119.11,135.71c-3.45,7.59-.07,15.5,3.46,18.73l7.02-3.67c-1.54-.95-4.59-3.4-4.44-7.79.13-3.89.79-6.19,1.21-7.27h-7.25Z" fill="#3C3D37" stroke-width="0"></path><path d="M321.44,70.98c8.3,3.56,11.01,12.53,10.3,17.34l-8.94,2.18s2.43-5.1-1.38-9.15-6.25-4.87-6.25-4.87l6.26-5.5Z" fill="#55679C" stroke-width="0"></path><path d="M322.8,91c-.15,0-.29-.07-.39-.18-.12-.15-.15-.36-.06-.53.09-.2,2.23-4.84-1.29-8.59-3.65-3.88-6.02-4.73-6.05-4.74-.17-.06-.29-.2-.33-.38-.03-.18.03-.36.16-.47l6.26-5.5c.15-.13.35-.16.53-.08,8.49,3.63,11.34,12.81,10.6,17.87-.03.2-.18.37-.38.41l-8.94,2.18s-.08.01-.12.01ZM316.08,76.34c1.03.54,3.04,1.83,5.71,4.66,3.01,3.2,2.33,7.05,1.8,8.79l7.7-1.88c.52-4.75-2.16-12.92-9.76-16.35l-5.45,4.78Z" fill="#3C3D37" stroke-width="0"></path><path d="M211.95,101.67c8.3,3.56,11.01,12.53,10.3,17.34l-8.94,2.18s2.43-5.1-1.38-9.15-6.25-4.87-6.25-4.87l6.26-5.5Z" fill="#55679C" stroke-width="0"></path><path d="M213.32,121.7c-.15,0-.29-.07-.39-.18-.12-.15-.15-.36-.06-.53.09-.2,2.23-4.84-1.29-8.59-3.65-3.89-6.02-4.73-6.05-4.74-.17-.06-.29-.2-.33-.38-.03-.17.03-.36.16-.47l6.26-5.5c.15-.13.35-.16.53-.08,8.48,3.63,11.34,12.81,10.6,17.87-.03.2-.18.37-.38.41l-8.94,2.18s-.08.01-.12.01ZM206.6,107.04c1.03.54,3.04,1.83,5.7,4.66,3.01,3.2,2.33,7.05,1.8,8.79l7.7-1.88c.52-4.75-2.16-12.92-9.76-16.35l-5.45,4.78Z" fill="#3C3D37" stroke-width="0"></path><path d="M73.64,95.56c-1.99-3.43-6.12-3.86-9.47-2.26-2.75,1.32-4.79,4.02-5.58,6.94-.84,3.09-.25,6.35,1.78,8.85.38.48.82.91,1.29,1.31-1.67.47-3.41.66-5.1.5-1.4-.15-2.77-.57-3.99-1.29-1.31-.77-2.18-1.93-3.25-2.97-1.45-1.41-4.22-.01-3.54,2.07,1.12,3.42,4.93,5.62,8.31,6.32,4.06.83,8.26.01,11.98-1.73.21-.09.42-.2.61-.31,1.47-.77,2.87-1.82,4.07-3.04,3.76-3.8,5.79-9.38,2.9-14.37ZM70.55,102.91c-.73,2.49-2.56,4.4-4.74,5.71-1.75-.88-3.12-2.25-3.55-4.33-.39-1.87.19-3.92,1.32-5.44,1.12-1.51,3.31-2.98,5.28-2.39,2.4.74,2.23,4.58,1.69,6.45Z" fill="#55679C" stroke-width="0"></path><path d="M57.37,115.85c-1.15,0-2.28-.11-3.39-.34-3.22-.66-7.42-2.8-8.69-6.65-.36-1.11.06-2.23,1.07-2.86,1.08-.67,2.43-.56,3.29.28.31.3.6.6.88.91.72.76,1.39,1.47,2.27,1.99,1.12.66,2.43,1.08,3.79,1.22,1.29.13,2.64.04,4.03-.26-.24-.24-.46-.48-.66-.73-2.09-2.58-2.77-5.97-1.87-9.29.87-3.21,3.05-5.92,5.84-7.26,3.28-1.56,7.84-1.46,10.12,2.46h0c3.22,5.56.58,11.38-2.98,14.97-1.25,1.27-2.7,2.36-4.2,3.13-.19.11-.42.22-.64.32-2.97,1.4-6,2.11-8.89,2.11ZM47.89,106.57c-.36,0-.71.11-.99.28-.23.15-.98.7-.65,1.7,1.06,3.22,4.75,5.32,7.94,5.98,3.66.75,7.7.16,11.66-1.7.2-.09.39-.19.57-.29,1.42-.74,2.79-1.76,3.97-2.96,3.29-3.33,5.76-8.69,2.82-13.76-1.96-3.37-5.95-3.43-8.83-2.06-2.49,1.2-4.53,3.73-5.31,6.62-.82,3.01-.21,6.07,1.68,8.4.35.43.76.85,1.22,1.24.14.12.21.31.17.49-.04.18-.18.33-.35.38-1.81.51-3.59.68-5.28.52-1.51-.16-2.96-.62-4.19-1.36-1-.59-1.76-1.39-2.49-2.17-.28-.29-.56-.59-.85-.88-.32-.31-.7-.43-1.08-.43ZM65.81,109.12c-.08,0-.15-.02-.23-.05-2.1-1.07-3.39-2.64-3.82-4.68-.41-1.92.12-4.11,1.41-5.84,1.27-1.7,3.63-3.23,5.82-2.57,2.82.87,2.59,5.14,2.03,7.07,0,0,0,0,0,0-.88,3.03-3.19,4.94-4.96,6-.08.05-.17.07-.26.07ZM67.92,96.82c-1.46,0-3.02,1.07-3.95,2.32-1.12,1.51-1.58,3.39-1.23,5.04.35,1.65,1.37,2.94,3.04,3.86,1.58-1,3.52-2.69,4.28-5.28.5-1.73.62-5.23-1.36-5.83-.25-.08-.52-.11-.78-.11ZM70.55,102.91h0,0Z" fill="#3C3D37" stroke-width="0"></path><path d="M91.04,105.61c-6.01,5.56-13.92,9.09-22.23,7.83-.72-.1-1.43-.26-2.14-.47,1.47-.77,2.87-1.82,4.07-3.04,1.07.11,2.11.12,3.03.09,5.62-.23,11.45-2.22,15.61-6.08,1.1-1.02,2.75.63,1.65,1.66Z" fill="#55679C" stroke-width="0"></path><path d="M72.21,114.2c-1.16,0-2.32-.09-3.47-.26-.74-.11-1.48-.27-2.21-.48-.2-.06-.34-.23-.36-.43-.02-.2.09-.4.27-.49,1.4-.73,2.77-1.75,3.95-2.95.11-.11.25-.16.41-.15.91.1,1.88.12,2.96.09,5.89-.24,11.47-2.41,15.29-5.94.79-.74,1.82-.48,2.39.12.55.59.7,1.56-.06,2.27,0,0,0,0,0,0-5.82,5.37-12.51,8.22-19.17,8.22ZM67.99,112.79c.3.06.59.11.89.16,7.47,1.13,15.22-1.61,21.82-7.7.4-.37.11-.75,0-.86-.18-.19-.59-.43-.98-.07-4,3.7-9.8,5.96-15.93,6.21-1.04.03-1.98,0-2.87-.07-.9.89-1.9,1.68-2.94,2.34ZM91.04,105.61h0,0Z" fill="#3C3D37" stroke-width="0"></path><path d="M383.25,141.73c-1.99-3.43-6.12-3.86-9.47-2.26-2.75,1.32-4.79,4.02-5.58,6.94-.84,3.09-.25,6.35,1.78,8.85.38.48.82.91,1.29,1.31-1.67.47-3.41.66-5.1.5-1.4-.15-2.77-.57-3.99-1.29-1.31-.77-2.18-1.93-3.25-2.97-1.45-1.41-4.22-.01-3.54,2.07,1.12,3.42,4.93,5.62,8.31,6.32,4.06.83,8.26.01,11.98-1.73.21-.09.42-.2.61-.31,1.47-.77,2.87-1.82,4.07-3.04,3.76-3.8,5.79-9.38,2.9-14.37ZM380.16,149.07c-.73,2.49-2.56,4.4-4.74,5.71-1.75-.88-3.12-2.25-3.55-4.33-.39-1.87.19-3.92,1.32-5.44,1.12-1.51,3.31-2.98,5.28-2.39,2.4.74,2.23,4.58,1.69,6.45Z" fill="#55679C" stroke-width="0"></path><path d="M366.98,162.01c-1.15,0-2.28-.11-3.39-.34-3.22-.66-7.42-2.8-8.69-6.65-.36-1.11.06-2.23,1.07-2.86,1.08-.67,2.43-.56,3.29.28.3.3.59.6.88.91.72.76,1.39,1.48,2.27,1.99,1.11.66,2.42,1.08,3.79,1.22,1.29.12,2.64.04,4.03-.26-.24-.24-.46-.48-.66-.73-2.09-2.58-2.77-5.97-1.87-9.29.87-3.21,3.05-5.92,5.84-7.26,3.28-1.56,7.84-1.46,10.12,2.46h0c3.22,5.56.58,11.38-2.98,14.97-1.25,1.27-2.7,2.36-4.2,3.14-.19.11-.42.22-.64.32-2.97,1.4-6,2.11-8.9,2.11ZM357.5,152.73c-.36,0-.71.11-.99.28-.23.15-.98.7-.65,1.7,1.06,3.22,4.75,5.32,7.94,5.98,3.66.75,7.7.16,11.66-1.7.2-.09.39-.19.57-.29,1.42-.74,2.79-1.76,3.97-2.96,3.29-3.33,5.76-8.69,2.82-13.76h0c-1.96-3.37-5.95-3.44-8.83-2.06-2.5,1.2-4.53,3.73-5.31,6.62-.82,3.01-.21,6.07,1.68,8.4.35.43.76.85,1.22,1.24.14.12.21.31.17.49-.04.18-.18.33-.35.38-1.82.51-3.59.68-5.28.51-1.51-.16-2.96-.63-4.19-1.36-1-.59-1.76-1.39-2.49-2.17-.28-.29-.56-.59-.85-.88-.32-.31-.7-.43-1.08-.43ZM375.42,155.28c-.08,0-.15-.02-.23-.05-2.1-1.06-3.39-2.64-3.82-4.67-.41-1.92.12-4.11,1.41-5.84,1.27-1.7,3.63-3.23,5.82-2.57,2.82.87,2.59,5.14,2.03,7.07,0,0,0,0,0,0-.88,3.03-3.19,4.94-4.96,6-.08.05-.17.07-.26.07ZM377.54,142.98c-1.46,0-3.02,1.08-3.95,2.32-1.12,1.51-1.58,3.39-1.23,5.04.35,1.65,1.37,2.94,3.04,3.86,1.58-1,3.52-2.69,4.28-5.28.5-1.74.62-5.23-1.36-5.83-.25-.08-.52-.11-.78-.11ZM380.16,149.07h0,0Z" fill="#3C3D37" stroke-width="0"></path><path d="M400.65,151.77c-6.01,5.56-13.92,9.09-22.23,7.83-.72-.1-1.43-.26-2.14-.47,1.47-.77,2.87-1.82,4.07-3.04,1.07.11,2.11.12,3.03.09,5.62-.23,11.45-2.22,15.61-6.08,1.1-1.02,2.75.63,1.65,1.66Z" fill="#55679C" stroke-width="0"></path><path d="M381.82,160.36c-1.16,0-2.32-.09-3.47-.26-.75-.11-1.49-.27-2.21-.48-.2-.06-.34-.23-.36-.43-.02-.2.09-.4.27-.49,1.4-.73,2.77-1.75,3.95-2.95.11-.11.25-.16.41-.15.92.1,1.89.13,2.96.09,5.89-.24,11.47-2.41,15.29-5.94.79-.73,1.82-.48,2.39.12.55.59.7,1.56-.06,2.27,0,0,0,0,0,0-5.81,5.37-12.51,8.22-19.17,8.22ZM377.61,158.95c.29.06.59.11.89.16,7.47,1.13,15.22-1.61,21.82-7.7.4-.37.11-.75,0-.86-.18-.2-.59-.43-.98-.07-4,3.7-9.8,5.96-15.93,6.21-1.04.03-1.98.01-2.87-.07-.9.89-1.9,1.68-2.94,2.34ZM400.65,151.77h0,0Z" fill="#3C3D37" stroke-width="0"></path><path d="M361.17,92.75c-3.32-2.16-7.2-.7-9.48,2.24-1.86,2.42-2.47,5.74-1.86,8.71.64,3.14,2.63,5.78,5.57,7.1.56.25,1.14.45,1.74.59-1.28,1.17-2.74,2.13-4.33,2.74-1.32.5-2.73.74-4.14.64-1.51-.1-2.82-.74-4.24-1.19-1.93-.61-3.77,1.89-2.23,3.44,2.54,2.55,6.93,2.8,10.26,1.9,4-1.09,7.38-3.71,9.92-6.94.14-.18.28-.36.41-.55.97-1.35,1.74-2.91,2.27-4.55,1.65-5.09.95-10.98-3.88-14.13ZM361.71,100.7c.47,2.55-.3,5.08-1.66,7.23-1.96,0-3.8-.61-5.12-2.27-1.19-1.49-1.59-3.58-1.27-5.45.32-1.85,1.62-4.15,3.64-4.51,2.47-.42,4.06,3.09,4.41,5Z" fill="#55679C" stroke-width="0"></path><path d="M348.82,119.9c-2.49,0-5.13-.66-6.99-2.52-.82-.83-.95-2.02-.33-3.03.66-1.09,1.92-1.59,3.06-1.24.4.13.8.27,1.19.41.98.36,1.91.69,2.93.76,1.29.08,2.65-.12,3.93-.61,1.21-.47,2.38-1.15,3.48-2.05-.32-.11-.62-.23-.92-.36-3.03-1.37-5.16-4.09-5.85-7.46-.67-3.25.06-6.66,1.95-9.11,2.22-2.87,6.35-4.83,10.15-2.35h0c5.38,3.52,5.63,9.9,4.08,14.71-.54,1.7-1.35,3.32-2.34,4.69-.12.19-.27.39-.42.58-2.83,3.61-6.35,6.07-10.17,7.11-1.11.3-2.41.49-3.76.49ZM343.82,113.99c-.63,0-1.18.41-1.46.87-.14.24-.56,1.06.18,1.81,2.39,2.4,6.63,2.62,9.78,1.77,3.61-.98,6.95-3.32,9.65-6.76.14-.17.27-.34.38-.52.94-1.3,1.7-2.83,2.21-4.43,1.44-4.45,1.23-10.35-3.67-13.56h0c-3.27-2.13-6.86-.39-8.81,2.13-1.69,2.19-2.37,5.37-1.76,8.3.62,3.06,2.55,5.52,5.28,6.75.51.23,1.06.42,1.65.56.18.04.32.18.37.36.05.18-.01.37-.15.49-1.39,1.27-2.9,2.23-4.49,2.84-1.42.54-2.92.77-4.36.68-1.16-.08-2.2-.45-3.21-.81-.38-.14-.76-.28-1.15-.4-.15-.05-.31-.07-.45-.07ZM360.05,108.44h0c-2.36,0-4.21-.83-5.51-2.46-1.23-1.53-1.74-3.72-1.37-5.85.37-2.09,1.79-4.52,4.04-4.92,2.91-.5,4.62,3.42,4.99,5.4t0,0c.57,3.1-.62,5.84-1.73,7.59-.09.15-.25.23-.42.23ZM357.68,96.17c-.1,0-.2,0-.31.03-1.7.3-2.91,2.29-3.23,4.1-.32,1.85.12,3.74,1.17,5.06,1.05,1.32,2.55,2.01,4.46,2.08.96-1.6,1.93-3.99,1.44-6.64-.32-1.68-1.65-4.62-3.53-4.62Z" fill="#3C3D37" stroke-width="0"></path><path d="M381.22,93.89c-2.87,7.67-8.34,14.38-16.33,17-.69.23-1.4.41-2.12.55.97-1.35,1.74-2.91,2.27-4.55,1.01-.38,1.94-.84,2.75-1.28,4.92-2.73,9.22-7.14,11.21-12.45.53-1.4,2.74-.67,2.22.74Z" fill="#55679C" stroke-width="0"></path><path d="M362.77,111.94c-.17,0-.33-.09-.42-.23-.11-.17-.1-.39.02-.56.92-1.29,1.68-2.81,2.2-4.41.05-.15.16-.26.3-.32.85-.32,1.73-.73,2.69-1.25,5.15-2.87,9.16-7.31,10.98-12.19.38-1.02,1.41-1.25,2.19-.96.75.28,1.33,1.08.97,2.05,0,0,0,0,0,0-3.26,8.71-9.17,14.85-16.64,17.3-.71.24-1.45.43-2.19.56-.03,0-.06,0-.09,0ZM365.44,107.27c-.4,1.2-.94,2.36-1.57,3.41.29-.08.58-.17.87-.26,7.18-2.35,12.87-8.28,16.02-16.7.19-.51-.24-.72-.38-.77-.25-.09-.72-.12-.91.38-1.91,5.1-6.07,9.73-11.43,12.71-.92.5-1.77.9-2.59,1.23ZM381.22,93.89h0,0Z" fill="#3C3D37" stroke-width="0"></path><polygon points="360.74 237.24 362.78 215.28 376.28 227.3 360.74 237.24" fill="#55679C" stroke-width="0"></polygon><path d="M360.74,237.74c-.09,0-.18-.02-.26-.07-.16-.1-.26-.28-.24-.47l2.03-21.96c.02-.19.14-.35.31-.42s.38-.03.52.09l13.51,12.02c.12.1.18.26.17.41-.01.16-.1.3-.23.38l-15.54,9.94c-.08.05-.18.08-.27.08ZM363.18,216.31l-1.85,19.96,14.12-9.04-12.28-10.92Z" fill="#3C3D37" stroke-width="0"></path></g></svg>