<svg transform="scale(1)" id="_0913_Certificate" xmlns="http://www.w3.org/2000/svg" viewBox="0 0 500 500" class="show_show__wrapper__graphic__5Waiy "><title>React</title><g id="paper"><path d="M273.66,365.46c.59-.19,42.96-24.96,69.31-36.4s38.34-27.97,55.23-57.3,31.06-38.59,31.06-38.59l-179.26-37.6s-68.11,52.54-108.97,79.67-80.64,62.16-80.64,62.16c0,0,50.67,20.07,80.09,22.21s77.27,11.42,97.22,11.2,22.43,6.96,35.96-5.35Z" fill="#fff" stroke-width="0"></path><path d="M259.07,373.19c-2.05,0-4.18-.32-6.66-.7-3.71-.56-8.32-1.24-14.7-1.18-11,.13-30.27-2.61-50.66-5.5-16.42-2.33-33.4-4.74-46.61-5.7-29.16-2.12-79.73-22.05-80.24-22.25-.16-.06-.28-.21-.31-.38-.03-.17.03-.35.16-.46.4-.35,40.27-35.37,80.69-62.2,40.38-26.8,108.26-79.12,108.95-79.65.12-.09.26-.12.41-.09l179.26,37.6c.2.04.35.2.39.4s-.05.4-.22.51c-.14.09-14.28,9.56-30.9,38.42-17.75,30.83-29.97,46.44-55.46,57.51-21.88,9.5-54.84,28.21-65.67,34.36-2.54,1.44-3.29,1.87-3.56,2-6.38,5.79-10.43,7.31-14.88,7.31ZM238.61,370.3c5.99,0,10.39.66,13.95,1.2,7.83,1.18,11.77,1.77,20.77-6.42.04-.04.1-.07.15-.1.19-.09,1.6-.89,3.53-1.99,10.84-6.16,43.84-24.89,65.76-34.41,25.23-10.95,37.36-26.47,54.99-57.09,14.31-24.85,26.84-35.46,30.29-38.08l-177.93-37.32c-3.95,3.04-69.44,53.41-108.82,79.55-37.61,24.97-74.75,57.04-79.97,61.58,6.46,2.51,52.13,19.91,79.18,21.88,13.24.96,30.24,3.38,46.67,5.71,20.35,2.89,39.57,5.63,50.51,5.5.31,0,.61,0,.91,0Z" fill="#3C3D37" stroke-width="0"></path><path d="M373.67,290.98c-.12,0-.24-.04-.34-.13-.2-.19-.22-.5-.03-.71,3.55-3.91,5.96-8.79,8.29-13.51.7-1.42,1.4-2.83,2.13-4.22,2.39-4.57,5.16-8.98,8.25-13.12-4.2-.33-8.26-3.5-9.92-7.88-1.49-3.91-1.26-8.56.62-13.17-13.38-2.08-26.83-4.78-39.97-8.01-.27-.07-.43-.34-.37-.6.07-.27.33-.43.6-.37,13.32,3.28,26.96,6,40.52,8.09.15.02.29.12.36.25s.08.3.02.44c-2.01,4.56-2.31,9.18-.85,13.01,1.65,4.33,5.86,7.4,9.96,7.26.19,0,.37.1.46.27s.07.38-.05.53c-3.28,4.32-6.23,8.95-8.74,13.76-.73,1.39-1.42,2.79-2.12,4.2-2.36,4.78-4.8,9.72-8.45,13.74-.1.11-.23.16-.37.16Z" fill="#3C3D37" stroke-width="0"></path><path d="M120.09,345.62h-.02c-5.28-.16-10.4-1.77-15.35-3.32-4.29-1.35-8.73-2.75-13.23-3.17-.15-.01-.28-.09-.37-.22-.08-.12-.11-.28-.06-.42.65-2.13,1.34-4.6,1.37-7.06.03-2.6-.73-4.91-2.12-6.5-.17-.2-.16-.5.02-.68,8.78-8.81,18.01-17.37,27.45-25.46.21-.18.52-.15.71.05.18.21.16.53-.05.71-9.3,7.97-18.41,16.41-27.07,25.09,1.37,1.75,2.1,4.15,2.07,6.81-.03,2.37-.62,4.7-1.23,6.76,4.39.5,8.68,1.84,12.83,3.15,4.88,1.54,9.93,3.12,15.08,3.28.28,0,.49.24.49.51,0,.27-.23.49-.5.49Z" fill="#3C3D37" stroke-width="0"></path><path d="M311.9,294.64s-.04,0-.07,0l-74.86-10.01c-.27-.04-.47-.29-.43-.56s.29-.48.56-.43l74.86,10.01c.27.04.47.29.43.56-.03.25-.25.43-.5.43Z" fill="#3C3D37" stroke-width="0"></path><path d="M282.02,324.93s-.04,0-.07,0l-74.86-10.01c-.27-.04-.47-.29-.43-.56s.29-.47.56-.43l74.86,10.01c.27.04.47.29.43.56-.03.25-.25.43-.5.43Z" fill="#3C3D37" stroke-width="0"></path><path d="M288.16,308.88s-.06,0-.08,0l-69.03-11.6c-.27-.05-.46-.3-.41-.58s.3-.46.58-.41l69.03,11.6c.27.05.46.3.41.58-.04.24-.25.42-.49.42Z" fill="#3C3D37" stroke-width="0"></path></g><g id="character"><path d="M226.67,224.03s-21.35,25.27-23.55,31.41-13.74,58.89-13.74,58.89c0,0,9.32,9.57,24.54,8.1l15.21-57.66,27.72-16.93s22.82,25.03,34.36,26.74,51.77.98,51.77.98c0,0,5.4-11.3,0-21.81h-37.1s-22.86-27.5-28.21-31.43-50.99,1.72-50.99,1.72Z" fill="#fff" stroke-width="0"></path><path d="M210.78,323.07c-13.41,0-21.68-8.31-21.76-8.4-.12-.12-.17-.29-.13-.46.47-2.16,11.56-52.86,13.76-58.95,2.21-6.15,22.77-30.53,23.64-31.56.08-.1.2-.16.32-.17,1.87-.23,45.9-5.62,51.35-1.62,5.18,3.79,26,28.74,28.15,31.33h36.86c.19,0,.36.1.44.27,5.45,10.61.06,22.14,0,22.26-.08.17-.25.28-.44.28-.4,0-40.41.72-51.85-.99-11.02-1.64-31.61-23.6-34.37-26.6l-27.2,16.61-15.16,57.47c-.05.2-.23.35-.44.37-1.09.11-2.15.15-3.18.15ZM189.92,314.16c1.38,1.3,10.17,8.94,23.59,7.8l15.12-57.32c.03-.12.11-.23.22-.3l27.72-16.93c.2-.12.47-.09.63.09.23.25,22.83,24.92,34.06,26.59,10.82,1.61,47.55,1.04,51.37.98.76-1.77,4.56-11.63.02-20.82h-36.79c-.15,0-.29-.07-.38-.18-.23-.27-22.88-27.5-28.12-31.35-4.09-3-34.67-.16-50.44,1.79-1.76,2.1-21.27,25.37-23.34,31.1-2.09,5.81-12.76,54.44-13.66,58.55Z" fill="#3C3D37" stroke-width="0"></path><path d="M261.67,146.69c-7.71-1.05-15.5-1.14-23.22-.22-16.71,1.97-37.32,4.87-51.79,4.06-11.28-.63-17.09-1.02-19.86-1.22-1.3-.09-2.46.78-2.72,2.06-.64,3.14-1.61,8.96-1.07,13.31.15,1.18,1.08,2.11,2.26,2.26,8.25,1.04,41.91,5.16,57.82,4.99l.97,53.55s35.65,4.84,57.55,0l-1.55-52.87,57.77,4.1c1.29.09,2.43-.8,2.65-2.07.49-2.84.9-7.88-1.21-12.01-.35-.68-.98-1.17-1.73-1.33-7.01-1.46-45.67-9.51-59.22-11.97-6.04-1.1-11.86-1.98-16.64-2.63Z" fill="#55679C" stroke-width="0"></path><path d="M256.32,134.83c-.35,4.1-.15,7.63.11,10.04.23,2.09-1.05,4.05-3.06,4.68-3.59,1.12-8.51,2.03-8.02-1.68l.18-8.19,10.79-4.85Z" fill="#fff" stroke-width="0"></path><path d="M248.26,151.02c-1.16,0-2.04-.24-2.62-.73-.67-.56-.93-1.4-.78-2.49l.18-8.13c0-.19.12-.37.29-.44l10.79-4.85c.16-.07.35-.05.49.05.14.1.22.27.21.45-.35,4.15-.13,7.69.11,9.94.25,2.32-1.18,4.51-3.41,5.21-2.14.67-3.9,1.01-5.26,1.01ZM246.03,140l-.18,7.87c-.1.8.04,1.32.43,1.65.95.8,3.42.64,6.94-.46,1.77-.56,2.91-2.3,2.71-4.14-.23-2.14-.44-5.43-.18-9.29l-9.73,4.38Z" fill="#3C3D37" stroke-width="0"></path><path d="M263.74,133.51c5.78-11.78-4.78-13.49-4.78-13.49,0,0,1.9-5.21-2.1-8.32-4-3.12-8.4-1.59-12.69-5.3-4.28-3.72-12.87-3.61-15.63,5.47-2.76,9.08.74,11.72.74,11.72l16.27,10.42,12.4,2.19,5.79-2.69Z" fill="#3C3D37" stroke-width="0"></path><path d="M257.96,136.7s-.06,0-.09,0l-12.4-2.19c-.06-.01-.13-.04-.18-.07l-16.27-10.42c-.19-.14-3.78-2.98-.95-12.29,1.22-4.03,3.75-6.78,7.11-7.75,3.18-.92,6.83-.11,9.32,2.04,2.16,1.88,4.3,2.35,6.57,2.84,2.02.44,4.11.9,6.09,2.45,3.46,2.69,2.8,6.86,2.42,8.34,1.22.31,4.14,1.33,5.58,4.1,1.33,2.58,1,5.94-.98,9.98-.05.1-.13.19-.24.23l-5.79,2.69c-.07.03-.14.05-.21.05ZM245.75,133.53l12.14,2.15,5.48-2.55c1.77-3.67,2.08-6.68.91-8.92-1.57-3.04-5.36-3.69-5.4-3.69-.15-.02-.28-.11-.35-.24-.08-.13-.09-.28-.04-.42.07-.2,1.72-4.91-1.94-7.76-1.8-1.4-3.69-1.82-5.69-2.26-2.29-.5-4.66-1.02-7.01-3.06-2.24-1.94-5.53-2.66-8.39-1.84-2.14.62-4.99,2.35-6.43,7.08-2.6,8.56.53,11.16.57,11.18l16.15,10.34ZM263.74,133.51h0,0Z" fill="#3C3D37" stroke-width="0"></path><path d="M231.19,117.42s-9.14,22.9,4.31,26.25c13.45,3.36,22.43-6.34,22.43-6.34,4.5,2.12,8.22-1.89,5.82-3.82-2.4-1.94-4.98,1.39-4.98,1.39,0,0-4.94-3.33-3.29-11.27,0,0-6.5,1.67-9.26-3.63,0,0-13.77,1.03-17.15-5.22" fill="#fff" stroke-width="0"></path><path d="M241.09,144.87c-1.8,0-3.71-.21-5.72-.71-2.87-.72-4.97-2.34-6.25-4.84-3.85-7.52.95-20.41,1.55-21.95-.85-.65-1.55-1.42-2.06-2.35-.13-.24-.04-.55.2-.68.24-.13.55-.04.68.2,3.19,5.89,16.54,4.97,16.68,4.96.2-.01.39.09.48.27,2.55,4.88,8.63,3.39,8.69,3.37.17-.04.34,0,.47.12.12.12.18.29.14.46-1.32,6.35,1.68,9.57,2.73,10.48.54-.58,1.7-1.63,3.07-1.79.83-.09,1.6.14,2.29.7,1.03.83,1.23,2.13.5,3.29-1.04,1.66-3.64,2.71-6.52,1.52-1.32,1.28-7.68,6.94-16.95,6.94ZM231.52,117.94c-.81,2.17-4.97,14.15-1.51,20.91,1.14,2.23,3.03,3.68,5.6,4.33,13,3.24,21.85-6.1,21.94-6.19.15-.16.38-.21.58-.11,2.63,1.24,4.84.16,5.57-1,.22-.35.63-1.25-.28-1.99-.48-.39-.99-.54-1.54-.48-1.45.17-2.72,1.77-2.73,1.79-.16.21-.46.25-.67.11-.21-.14-4.9-3.41-3.63-11.06-1.82.26-6.53.46-8.92-3.73-1.73.09-9.62.35-14.4-2.57Z" fill="#3C3D37" stroke-width="0"></path><path d="M259.56,136.42c-.07,0-.14-.02-.2-.06-.18-.11-.23-.34-.12-.52.54-.88,2.02-2.32,3.71-1.43.18.1.25.32.16.51-.1.18-.32.25-.51.16-1.5-.78-2.68,1.08-2.73,1.16-.07.11-.19.18-.32.18Z" fill="#3C3D37" stroke-width="0"></path><path d="M244.49,126.34c1.72-.83,3.82-.75,5.48.16.14.08.19.26.11.39-.06.11-.18.16-.3.14-1.7-.27-3.41-.39-5.13-.16-.31.04-.44-.41-.16-.54h0Z" fill="#3C3D37" stroke-width="0"></path><path d="M231.68,124.21c2.08-.42,4.24-.02,6.11.91.29.15.13.61-.19.55-1.97-.33-3.9-.76-5.88-.89-.33-.02-.36-.51-.04-.58h0Z" fill="#3C3D37" stroke-width="0"></path><path d="M236.75,134.53c-1.03,0-1.79-.68-1.94-1.76-.08-.57.07-1.09.42-1.48.57-.64,1.54-.83,2.13-.88.04-.82.1-2.72-.15-4.96-.03-.27.17-.52.44-.55.27-.03.52.17.55.44.35,3.09.13,5.5.12,5.6-.02.26-.21.44-.51.45-.38-.01-1.42.08-1.85.56-.16.18-.21.39-.17.68.11.82.69.91,1.03.89.69-.04,1.45-.6,1.47-1.37,0-.28.26-.49.51-.49.28,0,.49.24.49.51-.03,1.37-1.28,2.28-2.41,2.34-.05,0-.09,0-.14,0Z" fill="#3C3D37" stroke-width="0"></path><path d="M247.52,130.39c-.14.9-.75,1.55-1.37,1.46s-1.02-.9-.88-1.8c.04-.27.13-.52.25-.73l.99.74-.31-1.4c.15-.06.29-.09.45-.06.62.09,1.02.9.89,1.79Z" fill="#3C3D37" stroke-width="0"></path><path d="M235.17,128.54c-.14.9-.75,1.55-1.37,1.46s-1.02-.9-.88-1.8c.04-.27.13-.52.25-.73l.99.74-.31-1.4c.15-.06.29-.09.45-.06.62.09,1.02.9.89,1.79Z" fill="#3C3D37" stroke-width="0"></path><path d="M240.86,139.12c-.89,0-1.83-.45-2.69-1.31-.19-.2-.19-.51,0-.71.19-.19.51-.2.71,0,.78.78,1.6,1.13,2.3.99.6-.13,1.11-.62,1.39-1.36.1-.26.39-.39.65-.29.26.1.39.39.29.65-.41,1.06-1.18,1.78-2.12,1.98-.17.04-.35.05-.53.05Z" fill="#3C3D37" stroke-width="0"></path><path d="M233.88,105.15c4.11,1.29,7.37,3.44,12.92,7.31.25-.02,3.33,1.94,3.33,1.94l15.49,13.06s1.53-6.59.99-12.93c-.53-6.35-1.78-9.57-5.64-13.03-11.58-9.1-22.74-2.36-27.09,3.66Z" fill="#55679C" stroke-width="0"></path><path d="M265.62,127.96c-.12,0-.23-.04-.32-.12l-15.49-13.06c-1.25-.79-2.76-1.7-3.08-1.83-.08-.01-.15-.04-.21-.08-5.41-3.76-8.67-5.96-12.79-7.24-.15-.05-.27-.17-.33-.32-.05-.15-.02-.32.07-.45,2.44-3.37,7.22-7.29,13.31-8.14,5.02-.7,9.89.77,14.49,4.38,3.86,3.46,5.27,6.71,5.83,13.39.54,6.35-.99,13.02-1,13.09-.04.17-.16.31-.33.36-.05.02-.1.03-.16.03ZM247.02,112c.34.12,1.13.54,3.38,1.97l14.9,12.56c.38-1.94,1.23-7.06.81-11.97-.54-6.45-1.82-9.42-5.48-12.71-4.35-3.42-8.97-4.82-13.71-4.16-5.46.77-9.8,4.12-12.22,7.19,3.93,1.35,7.16,3.52,12.32,7.11Z" fill="#3C3D37" stroke-width="0"></path><path d="M228.55,111.86s10.38-2.63,21.58,2.53l-3.69-2.73s-7.98-7.05-12.09-8.33c-1.4-.44-4.92-.5-6-.53-7.88-.19.2,9.05.2,9.05Z" fill="#fff" stroke-width="0"></path><path d="M250.13,114.89c-.07,0-.14-.01-.21-.05-10.9-5.02-21.14-2.53-21.25-2.5-.18.04-.38-.01-.5-.16-.5-.57-4.81-5.62-3.54-8.33.5-1.08,1.75-1.6,3.73-1.55h.2c2.12.05,4.7.16,5.93.55,4.16,1.3,11.94,8.14,12.27,8.43l3.65,2.7c.21.15.26.44.13.66-.09.16-.26.25-.43.25ZM235.24,110.71c3.19,0,7.23.4,11.54,1.83l-.63-.47c-.11-.1-7.98-7.02-11.95-8.26-1.25-.4-4.45-.47-5.66-.5h-.2c-1.53-.04-2.48.29-2.8.97-.8,1.71,1.87,5.45,3.19,7.02.82-.17,3.2-.6,6.5-.6Z" fill="#3C3D37" stroke-width="0"></path><path d="M246.8,112.96c-.07,0-.14-.01-.2-.04-.25-.11-.37-.41-.25-.66.2-.44,4.91-10.82,11.54-11.86.27-.04.53.14.57.42s-.14.53-.42.57c-6.1.95-10.74,11.17-10.79,11.28-.08.19-.27.3-.46.3Z" fill="#3C3D37" stroke-width="0"></path><path d="M334.58,172.87c5.99,2.38,5.29,3.2,7.42,5.48s2.66,3.23,3.95,2.53-.46-4.08-.46-4.08c0,0,4.18,2.14,7.44,2.12,3.26-.02,13.14-2.33,13.14-2.33,0,0,.67-1.53-1.48-1.74s-8.17-.22-8.17-.22c0,0,7.65-3.49,8.64-4.21s-.11-2.95-2.48-1.89c-2.37,1.07-8.27,2.15-8.27,2.15,0,0,5.44-3.5,6.9-4.65s.76-3.49-1.5-2.31-5.77,2.69-5.77,2.69l4.51-6.58s-.8-1.99-3.2.3c-2.39,2.3-3.98,3.63-3.98,3.63,0,0-3.07-2.49-7.74-1.62s-5.56,1.1-5.56,1.1c0,0-1.99,1.03-3.02,4.43-1.03,3.4-.39,5.19-.39,5.19Z" fill="#fff" stroke-width="0"></path><path d="M345.19,181.61c-.89,0-1.61-.79-2.69-1.98-.25-.28-.54-.59-.86-.93-.53-.56-.89-1.04-1.21-1.47-.97-1.28-1.61-2.13-6.03-3.89-.13-.05-.24-.16-.29-.29-.03-.08-.69-1.98.38-5.5,1.08-3.57,3.18-4.69,3.27-4.73.03-.02.07-.03.11-.04.04,0,.96-.24,5.59-1.1,3.99-.75,6.85.83,7.8,1.47.56-.49,1.9-1.66,3.66-3.35,1.01-.97,1.93-1.38,2.74-1.21.72.15,1.14.75,1.27,1.08.06.15.04.33-.05.47l-3.51,5.13c1.21-.55,2.88-1.31,4.13-1.97,1.38-.72,2.31-.3,2.72.33.55.85.25,2.08-.68,2.82-.86.68-3.04,2.13-4.73,3.24,1.87-.41,4.29-1.01,5.58-1.59,1.59-.71,2.81-.16,3.31.71.43.74.29,1.59-.33,2.04-.71.51-4.32,2.22-6.69,3.32,1.95.02,4.66.07,5.98.21.9.09,1.51.4,1.82.93.4.69.1,1.42.07,1.51-.06.14-.19.25-.34.29-.41.1-9.97,2.33-13.25,2.34-2.29,0-4.93-.96-6.45-1.61.46,1.21.82,2.9-.29,3.51-.37.2-.69.29-1,.29ZM335,172.5c4.48,1.8,5.22,2.78,6.23,4.12.32.42.65.86,1.14,1.39.32.35.61.66.87.95,1.51,1.66,1.77,1.87,2.47,1.48.56-.3-.04-2.21-.67-3.41-.1-.19-.06-.43.09-.58.15-.16.39-.19.58-.09.04.02,4.08,2.06,7.17,2.06h.04c2.86-.02,11.08-1.87,12.74-2.25.01-.12,0-.26-.07-.39-.14-.23-.51-.38-1.05-.44-2.1-.21-8.06-.22-8.12-.22-.24,0-.44-.16-.49-.39-.05-.23.07-.46.28-.56,2.11-.97,7.77-3.6,8.56-4.16.23-.16.18-.49.05-.73-.26-.44-.94-.79-2.03-.3-2.4,1.08-8.14,2.14-8.38,2.19-.23.04-.47-.09-.56-.31-.09-.22,0-.48.19-.6.05-.04,5.44-3.5,6.86-4.62.58-.46.69-1.13.46-1.49-.22-.34-.75-.33-1.42.02-2.24,1.17-5.77,2.7-5.8,2.71-.2.09-.44.03-.58-.14-.14-.17-.15-.42-.03-.6l4.33-6.32c-.09-.11-.23-.23-.43-.27-.45-.09-1.09.25-1.83.95-2.38,2.28-3.99,3.64-4.01,3.65-.18.15-.45.16-.64,0-.03-.02-2.96-2.33-7.33-1.51-3.93.74-5.19,1.01-5.47,1.08-.28.17-1.86,1.25-2.73,4.11-.77,2.54-.56,4.14-.45,4.67Z" fill="#3C3D37" stroke-width="0"></path><path d="M353.76,176.3c-.19,0-.38-.11-.46-.3-.11-.25,0-.55.26-.66l2.66-1.17c.25-.11.55,0,.66.26.11.25,0,.55-.26.66l-2.66,1.17c-.06.03-.13.04-.2.04Z" fill="#3C3D37" stroke-width="0"></path><path d="M352.72,172.17c-.17,0-.33-.08-.43-.24-.15-.23-.07-.54.16-.69l1.6-.99c.24-.15.54-.07.69.16.15.23.07.54-.16.69l-1.6.99c-.08.05-.17.08-.26.08Z" fill="#3C3D37" stroke-width="0"></path><path d="M352.65,168.56c-.11,0-.22-.04-.31-.11-.22-.17-.25-.49-.08-.7l1.3-1.64c.17-.22.49-.25.7-.08.22.17.25.49.08.7l-1.3,1.64c-.1.12-.24.19-.39.19Z" fill="#3C3D37" stroke-width="0"></path><path d="M345.49,177.3c-.06,0-.13-.01-.19-.04-3.96-1.64-4.92-1.88-4.96-1.89-.27-.06-.43-.33-.37-.6.06-.27.33-.43.6-.37.04,0,1.02.24,5.12,1.94.25.11.38.4.27.65-.08.19-.27.31-.46.31Z" fill="#3C3D37" stroke-width="0"></path><path d="M277.66,172.63c-.08,0-.16-.02-.23-.06-7.74-4.02-8.25-17.32-8.27-17.89,0-.28.21-.51.48-.52.25-.02.51.21.52.48,0,.13.52,13.29,7.73,17.03.25.13.34.43.21.67-.09.17-.26.27-.44.27Z" fill="#3C3D37" stroke-width="0"></path><path d="M163.44,151.75c-6.69-.5-13.38-1.67-15.5-1.04s-1.93,2.29,1.14,3.27c0,0-5.4.78-8.67,2.75-3.26,1.97-3.06,4.3-1.72,4.94s4.22-4.31,11.63-4.62c0,0-5.29,1.55-7.9,4.74-1.81,2.21-.44,3.51,1.06,3.29s2.71-3.35,5.33-4.33c2.62-.98,4.97-1.1,4.97-1.1,0,0-3.37,1.63-5.13,3.71-2.62,3.1-1.5,4.58.84,3.35,1.22-.64,4.46-3.79,7.89-4.18,0,0-2.72,2.63-2.28,4.74.43,2.1,3.65,3.4,4.61,1.92s-1.51-2.77.42-3.99c1.93-1.21,6.82-1.1,8.74-4.37,1.92-3.26-.55-8.19-5.44-9.1Z" fill="#fff" stroke-width="0"></path><path d="M158.39,170.34c-.19,0-.39-.02-.6-.06-1.3-.25-2.86-1.35-3.18-2.9-.29-1.42.61-2.98,1.4-4.02-1.89.62-3.66,1.93-4.91,2.85-.57.42-1.03.76-1.37.94-1.23.65-2.28.65-2.8.01-.66-.83-.18-2.33,1.34-4.12.81-.97,1.94-1.83,2.95-2.49-.68.16-1.44.37-2.23.67-1.29.48-2.23,1.56-3.06,2.51-.8.92-1.49,1.71-2.37,1.84-.97.15-1.86-.23-2.27-.95-.28-.5-.56-1.56.74-3.15,1.06-1.29,2.52-2.32,3.91-3.09-2.1.75-3.62,1.85-4.76,2.68-1.18.85-1.95,1.42-2.7,1.05-.71-.34-1.15-1.03-1.19-1.85-.07-1.38.98-2.83,2.87-3.97,2.22-1.34,5.33-2.14,7.22-2.52-.88-.52-1.35-1.15-1.34-1.82,0-.77.65-1.4,1.76-1.73,1.5-.44,4.84-.08,9.08.38,2.03.22,4.34.47,6.59.64.02,0,.04,0,.05,0,2.65.5,4.85,2.17,5.9,4.48.84,1.85.8,3.81-.12,5.37-1.38,2.34-4.12,3.06-6.32,3.64-1.03.27-2,.53-2.58.89-.72.45-.59.76-.29,1.5.25.62.59,1.46.02,2.34-.37.56-.98.86-1.74.86ZM157.39,162.04c.19,0,.37.11.45.29.09.19.05.42-.1.57-.7.68-2.45,2.77-2.14,4.28.22,1.09,1.39,1.93,2.38,2.12.29.06.99.13,1.32-.37.27-.42.14-.81-.11-1.42-.29-.73-.74-1.83.69-2.72.71-.45,1.71-.71,2.86-1.01,2.13-.56,4.54-1.19,5.71-3.18.75-1.28.78-2.9.08-4.45-.91-2-2.84-3.46-5.15-3.9-2.26-.17-4.57-.42-6.6-.64-3.96-.43-7.39-.8-8.69-.41-.64.19-1.05.49-1.05.78,0,.31.46.97,2.2,1.53.22.07.36.29.35.52s-.2.42-.43.45c-.05,0-5.34.79-8.48,2.68-1.54.94-2.44,2.08-2.39,3.07.02.45.25.81.63,1,.22.1,1.03-.49,1.68-.96,1.8-1.31,4.82-3.5,9.71-3.71.24-.02.47.17.51.42.04.25-.11.49-.35.56-.05.02-5.17,1.55-7.65,4.58-.67.82-.91,1.56-.65,2.03.2.35.7.53,1.25.45.51-.08,1.12-.77,1.76-1.51.86-.99,1.94-2.22,3.46-2.79,2.66-1,5.02-1.12,5.12-1.13.25,0,.45.15.51.38.06.23-.05.47-.27.57-.03.02-3.3,1.61-4.97,3.58-1.35,1.6-1.53,2.6-1.32,2.85.12.15.65.21,1.55-.27.28-.15.73-.48,1.25-.86,1.65-1.22,4.14-3.06,6.82-3.37.02,0,.04,0,.06,0Z" fill="#3C3D37" stroke-width="0"></path><path d="M149.08,154.48c-.19,0-.38-.11-.46-.3-.11-.25,0-.55.26-.66.17-.07,4.24-1.77,11.04-.71.27.04.46.3.42.57-.04.27-.29.46-.57.42-6.49-1.01-10.45.62-10.49.64-.06.03-.13.04-.19.04Z" fill="#3C3D37" stroke-width="0"></path><path d="M256.84,248.33c-.12,0-.24-.04-.34-.13-.07-.06-6.87-6.29-15.68-7.72-.27-.04-.46-.3-.41-.57.04-.27.3-.46.57-.41,9.12,1.48,15.92,7.71,16.2,7.98.2.19.21.5.03.71-.1.11-.23.16-.37.16Z" fill="#3C3D37" stroke-width="0"></path><path d="M211.17,326.08l-5.91,18.95c-.41,1.33-1.82,2.07-3.15,1.67l-35.05-10.65c-1.47-.45-2.2-2.09-1.56-3.48l.36-.78s7-15.87,24.73-11.65c0,0,7.88,5.01,20.56,5.95Z" fill="#55679C" stroke-width="0"></path><path d="M205.33,343.88s-.1,0-.15-.02l-38.86-11.81c-.26-.08-.41-.36-.33-.62.08-.26.36-.41.62-.33l38.86,11.81c.26.08.41.36.33.62-.07.22-.26.35-.48.35Z" fill="#3C3D37" stroke-width="0"></path><path d="M195.95,341.03c-.06,0-.12-.01-.18-.03-.26-.1-.39-.39-.29-.65.03-.09,3.43-8.58,13.13-6.16.27.07.43.34.36.61-.07.27-.34.43-.61.36-8.83-2.2-11.84,5.23-11.96,5.55-.08.2-.27.32-.47.32Z" fill="#3C3D37" stroke-width="0"></path><path d="M189.39,326.33c-.17,0-.33-.08-.42-.24l-5.93-9.49c-.15-.23-.08-.54.16-.69.23-.15.54-.08.69.16l5.93,9.49c.15.23.08.54-.16.69-.08.05-.17.08-.26.08Z" fill="#3C3D37" stroke-width="0"></path><path d="M184.93,326.63c-.17,0-.33-.08-.42-.24l-5.93-9.49c-.15-.23-.08-.54.16-.69.23-.15.54-.08.69.16l5.93,9.49c.15.23.08.54-.16.69-.08.05-.17.08-.26.08Z" fill="#3C3D37" stroke-width="0"></path><path d="M346.5,256.19l18.16-.19c1.27-.01,2.31,1,2.34,2.27l.58,33.51c.02,1.4-1.2,2.51-2.59,2.34l-.78-.1s-15.79-1.64-17.1-18.26c0,0,2.15-8.27-.6-19.58Z" fill="#55679C" stroke-width="0"></path><path d="M363.84,294.07c-.27,0-.5-.22-.5-.49l-.64-37.16c0-.28.22-.5.49-.51.28,0,.5.21.51.49l.64,37.16c0,.28-.22.5-.49.51h0Z" fill="#3C3D37" stroke-width="0"></path><path d="M363.36,265.88s-.02,0-.03,0c-.08,0-8.47-.58-9.1-9.75-.02-.28.19-.51.47-.53.28-.02.51.19.53.46.56,8.29,7.84,8.8,8.15,8.82.28.02.49.25.47.53-.01.27-.24.47-.5.47Z" fill="#3C3D37" stroke-width="0"></path><path d="M345.8,283.57c-.11,0-.23-.04-.32-.12-.21-.18-.24-.49-.06-.71l6.6-7.84c.18-.21.49-.24.7-.06.21.18.24.49.06.71l-6.6,7.84c-.1.12-.24.18-.38.18Z" fill="#3C3D37" stroke-width="0"></path><path d="M347.32,287.36c-.11,0-.23-.04-.32-.12-.21-.18-.24-.49-.06-.71l6.6-7.84c.18-.21.49-.24.7-.06.21.18.24.49.06.71l-6.6,7.84c-.1.12-.24.18-.38.18Z" fill="#3C3D37" stroke-width="0"></path></g><g id="check"><path d="M317.04,364.64c9.92,7.25,25.26,34.05,31.15,44.79.66,1.21-.72,2.5-1.88,1.76l-18.45-11.69-.39,23.16c-.02,1.37-1.86,1.82-2.5.61-5.95-11.22-21.41-39.66-29.07-47.32l21.15-11.3Z" fill="#3C3D37" stroke-width="0"></path><path d="M326.12,424.47c-.66,0-1.27-.36-1.6-.97-6.19-11.67-21.41-39.63-28.98-47.21-.11-.11-.16-.27-.14-.43.02-.16.12-.29.26-.37l21.15-11.3c.17-.09.38-.08.53.04,9.96,7.28,25.21,33.86,31.3,44.95.41.74.27,1.63-.35,2.21-.62.58-1.52.67-2.24.21l-17.7-11.22-.38,22.27c-.01.85-.58,1.55-1.41,1.75-.15.04-.3.05-.44.05ZM296.71,376.06c7.81,8.3,22.6,35.48,28.69,46.96.22.42.62.49.92.42.3-.07.63-.32.64-.8l.39-23.16c0-.18.1-.35.26-.43.16-.09.35-.08.5.02l18.46,11.69c.4.25.79.12,1.02-.1.23-.21.39-.59.16-1-6.01-10.94-20.95-37.02-30.76-44.44l-20.29,10.84Z" fill="#3C3D37" stroke-width="0"></path><path d="M230.99,380.02c-13.3,7.76-32.48,25.17-40.65,32.82-1.01.95-2.62-.09-2.17-1.4l7.78-22.76-18.54,8.7c-1.34.63-2.55-1.07-1.52-2.13,7-7.22,21.89-20.81,42.84-30.61l12.26,15.38Z" fill="#3C3D37" stroke-width="0"></path><path d="M189.44,413.71c-.34,0-.69-.1-1-.3-.72-.46-1.01-1.32-.74-2.13l7.4-21.65-17.47,8.2c-.95.45-1.83.03-2.27-.59-.44-.62-.56-1.58.18-2.34,7.04-7.25,21.98-20.89,42.99-30.72.21-.1.46-.04.6.14l12.26,15.38c.09.11.13.26.1.4-.03.14-.11.27-.24.34-13.35,7.79-32.81,25.5-40.56,32.75-.35.33-.8.5-1.25.5ZM195.95,388.17c.12,0,.24.04.33.13.15.13.2.34.14.53l-7.78,22.76c-.15.45.07.8.33.97.26.17.67.24,1.02-.09,7.68-7.19,26.82-24.61,40.24-32.59l-11.65-14.62c-20.67,9.74-35.39,23.18-42.34,30.34-.36.37-.27.79-.08,1.06.19.27.57.49,1.03.27l18.54-8.7c.07-.03.14-.05.21-.05Z" fill="#3C3D37" stroke-width="0"></path><path d="M295.19,328.81l9.07-1c5.09-.56,9.48,1.33,9.93,4.26l.79,5.24c.25,1.68,1.83,3.09,4.28,3.83l7.63,2.29c4.28,1.29,5.59,4.5,2.97,7.26l-4.68,4.93c-1.5,1.58-1.77,3.39-.72,4.9l3.27,4.71c1.84,2.64-.43,5.95-5.12,7.49l-8.37,2.74c-2.68.88-4.69,2.39-5.44,4.1l-2.34,5.33c-1.31,2.99-6.29,5.13-11.26,4.85l-8.86-.5c-2.84-.16-5.82.48-8.09,1.73l-7.05,3.91c-3.96,2.19-9.75,2.35-13.09.36l-5.96-3.55c-1.91-1.14-4.73-1.62-7.64-1.3l-9.07,1c-5.09.56-9.48-1.33-9.93-4.26l-.79-5.24c-.25-1.68-1.83-3.09-4.28-3.83l-7.63-2.29c-4.28-1.29-5.59-4.5-2.97-7.26l4.68-4.93c1.5-1.58,1.77-3.39.72-4.9l-3.27-4.71c-1.84-2.64.43-5.95,5.12-7.49l8.37-2.74c2.68-.88,4.69-2.39,5.44-4.1l2.34-5.33c1.31-2.99,6.29-5.13,11.26-4.85l8.86.5c2.84.16,5.82-.48,8.09-1.73l7.05-3.91c3.96-2.19,9.75-2.35,13.09-.36l5.96,3.55c1.91,1.14,4.73,1.62,7.64,1.3Z" fill="#55679C" stroke-width="0"></path><path d="M264.01,397.13c-2.29,0-4.49-.48-6.14-1.47l-5.96-3.55c-1.81-1.08-4.55-1.54-7.33-1.23l-9.07,1c-5.39.59-9.99-1.46-10.48-4.69l-.79-5.24c-.22-1.47-1.69-2.75-3.93-3.42l-7.63-2.29c-2.44-.73-4.1-2.13-4.55-3.83-.38-1.42.11-2.93,1.36-4.25l4.68-4.93c1.33-1.4,1.58-2.96.67-4.27l-3.27-4.71c-.74-1.07-.92-2.28-.51-3.49.67-1.99,2.87-3.77,5.89-4.76l8.37-2.74c2.53-.83,4.45-2.26,5.14-3.82l2.34-5.33c1.4-3.18,6.56-5.45,11.75-5.15l8.86.5c2.73.16,5.65-.47,7.82-1.67l7.05-3.91c4.12-2.28,10.09-2.44,13.59-.36l5.96,3.55c1.81,1.08,4.55,1.53,7.33,1.23l9.08-1c5.39-.59,9.99,1.46,10.48,4.69l.79,5.24c.22,1.47,1.69,2.75,3.93,3.42l7.63,2.29c2.44.73,4.1,2.13,4.55,3.84.38,1.42-.11,2.93-1.36,4.25l-4.68,4.93c-1.33,1.4-1.58,2.96-.67,4.27l3.27,4.71c.74,1.07.92,2.28.51,3.49-.67,1.99-2.87,3.77-5.89,4.76l-8.37,2.74c-2.53.83-4.45,2.26-5.14,3.82l-2.34,5.33c-1.4,3.18-6.54,5.46-11.75,5.15l-8.86-.5c-2.73-.15-5.65.47-7.82,1.67l-7.05,3.91c-2.18,1.21-4.88,1.82-7.46,1.82ZM246.31,389.8c2.35,0,4.51.51,6.12,1.46l5.96,3.55c3.17,1.89,8.82,1.72,12.6-.37l7.05-3.91c2.36-1.31,5.4-1.96,8.36-1.79l8.86.5c4.71.27,9.55-1.77,10.77-4.55l2.34-5.33c.81-1.85,2.9-3.44,5.74-4.37l8.37-2.74c2.72-.89,4.69-2.43,5.25-4.12.31-.92.18-1.79-.39-2.6l-3.27-4.71c-1.19-1.71-.9-3.77.76-5.53l4.68-4.93c1.02-1.08,1.41-2.22,1.12-3.31-.36-1.36-1.77-2.5-3.87-3.14l-7.63-2.29c-2.66-.8-4.35-2.34-4.63-4.23l-.79-5.24c-.4-2.65-4.6-4.37-9.38-3.84l-9.08,1h0c-3.04.34-5.94-.16-7.95-1.36l-5.96-3.55c-3.17-1.89-8.82-1.72-12.6.37l-7.05,3.91c-2.36,1.31-5.4,1.97-8.36,1.79l-8.86-.5c-4.71-.26-9.55,1.78-10.77,4.56l-2.34,5.33c-.81,1.85-2.91,3.44-5.74,4.37l-8.37,2.74c-2.72.89-4.69,2.43-5.25,4.12-.31.92-.18,1.79.39,2.6l3.27,4.71c1.19,1.71.9,3.77-.76,5.53l-4.68,4.93c-1.02,1.08-1.41,2.22-1.12,3.31.36,1.36,1.77,2.5,3.87,3.13l7.63,2.29c2.66.8,4.35,2.34,4.63,4.23l.79,5.24c.4,2.65,4.61,4.36,9.38,3.84l9.07-1c.62-.07,1.24-.1,1.84-.1ZM295.19,328.81h0,0Z" fill="#3C3D37" stroke-width="0"></path><ellipse cx="269.86" cy="359.6" rx="44.63" ry="25.89" transform="translate(-40.53 34.34) rotate(-6.77)" fill="#fff" stroke-width="0"></ellipse><path d="M263.92,386.35c-3.86,0-7.71-.3-11.47-.94-13.29-2.25-22.86-8.14-26.26-16.16-2.3-5.43-1.49-11.26,2.34-16.86,9.65-14.1,35.99-22.44,58.72-18.59,13.29,2.25,22.86,8.14,26.26,16.16,2.3,5.43,1.49,11.26-2.34,16.86h0c-8.06,11.77-27.75,19.53-47.25,19.53ZM275.74,333.85c-19.18,0-38.5,7.58-46.38,19.1-3.63,5.31-4.41,10.81-2.25,15.91,3.22,7.58,12.75,13.4,25.51,15.56,22.38,3.79,48.28-4.36,57.73-18.17h0c3.63-5.31,4.41-10.81,2.25-15.91-3.22-7.58-12.75-13.4-25.51-15.56-3.72-.63-7.53-.93-11.35-.93ZM310.77,366.54h0,0Z" fill="#3C3D37" stroke-width="0"></path><path d="M255.03,349.83l2.05,12.92,30.1-9.61c.92-.29,1.9.24,2.15,1.17l1.12,4.05c.24.88-.25,1.79-1.12,2.07l-31.69,10.16c-2.67.86-5.47-.87-5.91-3.64l-2.53-15.97c-.14-.87.41-1.7,1.26-1.91l2.47-.62c.97-.24,1.93.4,2.09,1.38Z" fill="#3C3D37" stroke-width="0"></path><path d="M256.25,371.31c-.93,0-1.85-.26-2.66-.75-1.26-.78-2.12-2.06-2.35-3.53l-2.53-15.97c-.18-1.13.52-2.2,1.64-2.47l2.47-.62c.6-.15,1.23-.04,1.75.3.51.34.86.88.96,1.49l1.96,12.34,29.55-9.43c.57-.18,1.18-.13,1.71.16.53.29.91.77,1.07,1.35l1.12,4.05c.32,1.14-.32,2.32-1.45,2.68l-31.69,10.16c-.51.16-1.03.24-1.55.24ZM253.36,348.9c-.1,0-.2.01-.29.04l-2.47.62c-.61.15-.99.73-.89,1.35l2.53,15.97c.19,1.17.87,2.21,1.89,2.83,1.01.62,2.24.78,3.38.41l31.69-10.16c.62-.2.96-.84.79-1.46l-1.12-4.05c-.09-.32-.3-.58-.58-.73-.29-.16-.62-.19-.94-.09l-30.1,9.61c-.14.04-.29.03-.41-.05-.12-.08-.21-.2-.23-.35l-2.05-12.92h0c-.05-.33-.24-.62-.52-.81-.2-.13-.43-.2-.66-.2Z" fill="#3C3D37" stroke-width="0"></path></g></svg>